<svg version="1.1" id="Layer_1" xmlns="http://www.w3.org/2000/svg" xmlns:xlink="http://www.w3.org/1999/xlink" x="0px" y="0px"
	 width="100%" viewBox="0 0 1024 1024" enable-background="new 0 0 1024 1024" xml:space="preserve">
<path fill="#000000" opacity="1.000000" stroke="none" 
	d="
M761.511475,794.438477 
	C739.179504,822.114868 710.279419,838.117432 676.000183,844.257507 
	C643.650330,850.051880 611.935303,845.932983 580.445679,837.105652 
	C557.918945,830.790833 534.977478,825.860291 511.284149,826.378784 
	C495.562927,826.722900 480.299164,829.931335 465.092224,833.525574 
	C445.227875,838.220520 425.590302,844.087524 405.157440,845.936890 
	C355.480621,850.433228 310.893250,839.266541 275.116760,802.418091 
	C261.338196,788.226685 254.179596,770.384583 250.915604,751.248047 
	C244.892868,715.937073 249.402054,682.015991 266.764069,650.278809 
	C275.744385,633.863098 287.569336,619.628235 302.101074,607.952148 
	C333.882141,582.416504 360.180420,552.439331 380.683167,517.039978 
	C392.057495,497.401459 406.480896,479.718567 425.320740,466.421692 
	C447.776855,450.572510 472.802216,441.482574 500.196289,438.557526 
	C535.993713,434.735229 568.457886,443.495941 598.066223,463.542480 
	C621.117554,479.149506 638.457397,500.168121 653.253174,523.338562 
	C667.000183,544.866638 681.082214,566.072266 700.013062,583.500427 
	C711.652893,594.216370 723.840210,604.343384 735.355652,615.187195 
	C760.880798,639.223389 775.810364,668.697815 780.512756,703.558960 
	C784.479248,732.965027 780.854065,760.866394 766.305664,787.004333 
	C764.932068,789.472046 763.267151,791.777588 761.511475,794.438477 
M299.630219,771.861450 
	C302.932861,776.716431 306.910614,780.942993 311.393707,784.729858 
	C330.358337,800.748962 352.933563,806.689026 377.046326,807.528198 
	C399.185059,808.298706 420.576843,803.531799 441.783783,797.507324 
	C465.151031,790.869202 488.928894,785.894897 513.329163,785.774048 
	C539.941284,785.642151 565.845154,791.025391 591.286072,798.316284 
	C619.268005,806.335449 647.417175,811.027893 676.321960,804.564758 
	C702.279663,798.760559 724.268005,786.537109 736.240967,761.601990 
	C748.081848,736.941895 746.214600,711.468323 737.052246,686.402405 
	C728.614807,663.319397 712.910706,645.419678 693.903015,630.549866 
	C661.303223,605.046936 634.628723,574.703552 614.787537,538.287354 
	C602.951416,516.563538 585.466980,500.724426 563.000427,490.115601 
	C541.156372,479.800781 518.559143,474.980804 494.717865,480.195587 
	C458.288544,488.163818 430.599731,508.270996 412.115662,540.986267 
	C400.464447,561.607971 387.428131,581.336426 371.302124,598.844849 
	C358.159424,613.114258 342.683350,624.782104 328.226044,637.588013 
	C300.336029,662.292480 284.579254,692.420898 286.189026,730.613342 
	C286.817322,745.519897 290.474121,759.123657 299.630219,771.861450 
z"/>
<path fill="#000000" opacity="1.000000" stroke="none" 
	d="
M497.294434,247.010437 
	C505.278259,282.344299 507.210541,317.202362 494.202240,351.363647 
	C484.911591,375.761993 470.326172,396.355743 447.079254,409.589600 
	C415.996552,427.284180 378.616730,423.118469 351.721680,398.580872 
	C328.087372,377.018158 313.190338,349.869324 307.483856,318.755157 
	C300.310547,279.643127 303.428467,241.040588 322.882751,205.389664 
	C337.130157,179.280655 359.045349,162.240234 388.928833,158.023483 
	C412.714874,154.667130 434.394958,161.624405 453.410339,176.325455 
	C474.753571,192.826157 487.733917,214.875443 495.358093,240.395874 
	C495.976410,242.465408 496.604950,244.531906 497.294434,247.010437 
M366.516541,214.994003 
	C356.939423,226.615234 350.206940,239.558914 347.193024,254.464874 
	C343.897949,270.761475 343.352478,287.080841 345.346741,303.544586 
	C348.293793,327.873779 357.817200,348.902161 376.144684,365.608643 
	C394.532043,382.369690 416.216217,383.957703 434.542969,369.620117 
	C442.978455,363.020782 448.955536,354.424927 453.408661,344.771942 
	C465.053925,319.528595 466.886017,293.252808 461.056061,266.343170 
	C456.474731,245.196854 447.405884,226.369217 430.822876,211.851837 
	C421.518219,203.706146 410.633209,198.413345 398.209106,198.694870 
	C385.660095,198.979218 375.384125,205.224976 366.516541,214.994003 
z"/>
<path fill="#000000" opacity="1.000000" stroke="none" 
	d="
M713.681763,349.475891 
	C703.263550,375.798279 686.863403,396.667572 662.143677,410.193604 
	C631.341675,427.047607 594.846985,422.509003 568.211426,399.374878 
	C547.903503,381.736572 537.652100,358.710022 531.648132,333.248779 
	C527.644043,316.268646 526.612244,298.965576 527.792725,281.700043 
	C530.419617,243.280807 542.710205,208.527252 571.520264,181.766129 
	C612.741333,143.476624 670.299500,150.457474 701.987244,196.967224 
	C715.161804,216.304138 722.051575,238.097610 725.325012,261.076935 
	C729.652893,291.458252 724.192810,320.622101 713.681763,349.475891 
M619.342102,378.956055 
	C629.086243,380.580475 637.792175,377.642914 645.835449,372.527374 
	C659.204834,364.024414 668.075623,351.538300 674.954102,337.679199 
	C686.576355,314.262451 688.918030,289.290253 685.403259,263.739502 
	C682.348206,241.530655 673.172058,222.247635 655.186707,208.129211 
	C642.600464,198.249054 628.507202,195.635345 613.492249,202.151352 
	C599.531433,208.209930 589.357422,218.629639 581.928833,231.669540 
	C572.973145,247.390121 569.068481,264.576782 567.040466,282.484558 
	C564.118408,308.285675 568.820679,332.200226 582.729187,354.091949 
	C591.088867,367.249908 602.410461,376.598663 619.342102,378.956055 
z"/>
<path fill="#000000" opacity="1.000000" stroke="none" 
	d="
M245.693115,581.581421 
	C226.513412,578.905945 210.585953,570.303284 196.247879,558.417114 
	C172.944687,539.099060 161.460556,513.086182 154.704178,484.463837 
	C150.869446,468.218567 148.570541,451.743683 149.730835,435.046631 
	C151.598129,408.175385 159.213394,383.389862 178.145233,363.244324 
	C205.293182,334.355896 242.299194,331.721375 276.086426,349.074158 
	C303.204742,363.001892 319.848297,386.515442 330.920624,414.128845 
	C340.309326,437.543457 344.488892,462.099854 343.211151,487.315186 
	C341.926819,512.660217 335.084198,536.499084 317.746216,555.639709 
	C298.735687,576.626770 274.401215,585.090759 245.693115,581.581421 
M302.487854,461.033295 
	C301.867859,457.945648 301.298157,454.846924 300.619904,451.772125 
	C295.053314,426.536499 283.075165,405.197937 262.219025,389.421539 
	C244.846115,376.280029 226.480484,375.762299 211.322693,388.078613 
	C203.109772,394.751953 197.902725,403.709625 194.356430,413.545990 
	C188.826828,428.883362 188.328430,444.692078 190.263351,460.747253 
	C193.520782,487.776154 204.728699,510.771515 225.134262,528.860474 
	C243.204666,544.879395 265.110474,546.301880 282.135101,533.080933 
	C292.182068,525.278748 297.468231,514.484009 300.625732,502.466400 
	C304.139984,489.090973 304.312439,475.549042 302.487854,461.033295 
z"/>
<path fill="#000000" opacity="1.000000" stroke="none" 
	d="
M706.894653,397.979767 
	C717.407043,378.969055 731.351501,363.535004 748.959473,351.463898 
	C761.103821,343.138336 774.853455,339.832214 789.333435,338.613251 
	C836.381470,334.652588 866.698242,372.713654 875.270447,405.381287 
	C886.379822,447.718018 879.789062,488.135376 859.938538,526.087219 
	C845.134888,554.390015 821.471252,573.309753 789.549011,580.553406 
	C758.632507,587.568726 724.526062,573.828674 706.591309,547.318604 
	C695.896729,531.510437 690.428650,514.121460 688.456116,495.194977 
	C684.890503,460.983490 690.429138,428.678650 706.894653,397.979767 
M767.033264,541.596069 
	C771.346680,541.552368 775.676392,542.111816 779.964478,541.172363 
	C799.897217,536.805603 813.198059,523.838928 823.712830,507.332092 
	C837.542786,485.621033 842.475952,461.652710 840.539551,436.307312 
	C839.227661,419.135437 833.153259,403.592560 820.956482,390.983856 
	C809.289429,378.922699 795.294189,376.225159 779.806885,382.033722 
	C763.496887,388.150818 752.059326,400.110626 743.260925,414.659576 
	C727.637085,440.494843 720.541504,468.362518 727.581970,498.175232 
	C732.496765,518.986816 743.145630,536.115601 767.033264,541.596069 
z"/>
</svg>