<svg version="1.1" id="Layer_1" xmlns="http://www.w3.org/2000/svg" xmlns:xlink="http://www.w3.org/1999/xlink" x="0px" y="0px"
	 width="100%" viewBox="0 0 288 210" enable-background="new 0 0 288 210" xml:space="preserve">
<path fill="#F8F8F9" opacity="1.000000" stroke="none" 
	d="
M289.000000,76.000000 
	C289.000000,121.333336 289.000000,166.166672 289.000000,211.000000 
	C193.000000,211.000000 97.000000,211.000000 1.000000,211.000000 
	C1.000000,141.000000 1.000000,71.000000 1.000000,1.000000 
	C97.000000,1.000000 193.000000,1.000000 289.000000,1.000000 
	C289.000000,25.833334 289.000000,50.666668 289.000000,76.000000 
M37.709038,149.856842 
	C40.099354,151.662628 42.489670,153.468399 45.292038,155.928802 
	C49.184147,156.467636 53.073685,157.450470 56.968777,157.472992 
	C81.586922,157.615448 106.206291,157.545059 130.825256,157.544937 
	C132.605667,157.544937 134.386078,157.544952 136.395020,157.544952 
	C136.395020,165.011230 136.395020,171.901459 136.395020,179.007950 
	C133.720932,179.158630 131.264877,179.297028 127.942772,179.213501 
	C124.642937,179.287781 121.343102,179.362045 117.116501,179.259628 
	C112.879776,179.252670 108.635277,179.101730 104.411240,179.329758 
	C103.201912,179.395050 102.051804,180.557343 100.778793,181.335846 
	C100.778793,181.335846 100.552330,181.404556 100.495621,180.517807 
	C97.670639,177.889450 95.376854,179.199661 93.695183,181.772736 
	C91.841721,184.608643 93.249496,186.597595 96.852409,188.255463 
	C122.105347,188.281006 147.358276,188.308304 172.611221,188.330429 
	C177.097015,188.334351 181.627228,188.673950 186.045746,188.124863 
	C187.700668,187.919205 190.514252,185.321167 190.306686,184.342789 
	C189.904861,182.448822 187.896744,180.733917 186.220001,179.349854 
	C185.525665,178.776718 183.971878,179.245407 182.808960,179.239166 
	C170.852112,179.174942 158.895279,179.110458 146.851303,178.106155 
	C146.831085,171.335297 146.810852,164.564423 147.727798,157.549118 
	C175.010605,157.534683 202.293488,157.547287 229.576035,157.454819 
	C231.771652,157.447388 233.964828,156.717468 236.789261,156.306717 
	C237.191147,156.210709 237.593048,156.114700 238.588974,156.049744 
	C238.792572,155.716980 238.996170,155.384216 239.897049,154.767899 
	C240.425568,153.942520 240.954102,153.117142 241.487198,152.227509 
	C241.487198,152.227509 241.544617,152.198273 242.099915,152.516159 
	C242.770767,152.136154 243.441620,151.756165 244.763824,151.204834 
	C245.001663,150.839371 245.239502,150.473907 245.995499,149.998077 
	C246.360870,149.417877 246.726242,148.837692 247.769821,147.988159 
	C248.157608,146.660278 248.545410,145.332397 249.171005,143.435059 
	C249.243698,143.030716 249.316391,142.626358 250.089981,142.206970 
	C250.339050,141.631851 250.805359,141.057007 250.806137,140.481552 
	C250.852966,105.952980 250.902771,71.424179 250.757568,36.896221 
	C250.749939,35.078705 249.057846,33.268269 248.282852,31.219845 
	C248.282852,31.219845 248.102982,31.018862 248.132690,30.371929 
	C247.789902,30.132851 247.447098,29.893772 247.138718,28.974081 
	C244.876953,26.941986 242.615189,24.909891 240.033997,22.224556 
	C236.615189,21.442175 233.198013,19.985989 229.777328,19.977694 
	C171.154770,19.835548 112.531441,19.793114 53.909592,20.039354 
	C49.788490,20.056665 45.677570,22.496958 40.928574,24.015379 
	C39.310253,26.683031 37.691933,29.350685 35.601906,32.550911 
	C34.729683,35.951977 33.121315,39.348522 33.100418,42.754810 
	C32.914890,72.996277 32.973747,103.239601 33.075684,133.481979 
	C33.086716,136.754501 33.827385,140.024567 34.319424,143.767914 
	C34.319424,143.767914 34.716953,144.039795 34.813553,144.720459 
	C35.683281,146.213272 36.553009,147.706100 37.709038,149.856842 
z"/>
<path fill="#202021" opacity="1.000000" stroke="none" 
	d="
M248.102966,31.018867 
	C248.102982,31.018862 248.282852,31.219845 248.154785,31.753178 
	C247.987076,32.563686 247.947433,32.840862 247.658875,33.318832 
	C247.609833,34.681187 247.809723,35.842747 248.003891,37.002689 
	C247.998169,37.001068 248.000336,36.989239 248.002075,37.458984 
	C248.004562,68.714928 247.987991,99.501152 248.048126,130.287247 
	C248.051834,132.184860 248.660553,134.081284 248.985931,136.367371 
	C249.119110,138.578308 249.254105,140.400162 249.389099,142.222015 
	C249.316391,142.626358 249.243698,143.030716 248.684967,143.797424 
	C247.829834,145.525696 247.460739,146.891602 247.091629,148.257507 
	C246.726242,148.837692 246.360870,149.417877 245.424774,150.161743 
	C244.606873,150.675659 244.359680,151.025909 244.112488,151.376160 
	C243.441620,151.756165 242.770767,152.136154 241.654236,151.996841 
	C240.312897,148.183273 239.008408,148.809418 236.460114,151.379929 
	C238.790161,151.802948 240.136383,152.047348 241.482635,152.291763 
	C240.954102,153.117142 240.425568,153.942520 239.296570,155.004303 
	C238.462372,155.500015 238.228653,155.759354 237.994934,156.018707 
	C237.593048,156.114700 237.191147,156.210709 236.406097,155.963470 
	C232.349869,155.403763 228.676819,155.187302 225.086823,154.600342 
	C226.327225,153.819504 227.526962,153.498444 228.630325,152.974426 
	C229.801163,152.418365 230.880478,151.669601 232.213959,150.896622 
	C232.699829,150.595703 232.883530,150.339981 233.274445,150.009186 
	C233.966309,149.586578 234.362961,149.175827 234.927979,148.559769 
	C235.407257,147.935074 235.718140,147.515671 236.286057,146.879395 
	C238.229568,144.567795 239.916046,142.473068 241.805313,140.625702 
	C242.678574,138.414551 243.925110,135.957626 243.931885,133.497269 
	C244.015198,103.272842 243.934052,73.047829 243.787384,42.823494 
	C243.782791,41.878899 242.616348,40.939941 241.880798,39.676155 
	C241.826767,38.908840 241.883499,38.463722 242.193085,37.862747 
	C242.525253,37.132526 242.604568,36.558163 242.683899,35.983803 
	C242.343338,36.159645 242.002762,36.335487 241.357956,36.329956 
	C238.706589,33.784695 236.359467,31.420807 233.938477,28.650696 
	C232.041580,27.824446 230.220459,27.049570 228.395187,27.039711 
	C211.598877,26.948973 194.801849,26.992458 178.005020,26.993481 
	C137.426544,26.995955 96.848000,26.970577 56.269855,27.085854 
	C54.506016,27.090866 52.745827,28.381252 50.693733,29.247828 
	C49.362633,29.834709 48.321724,30.246643 47.198517,30.264969 
	C46.415905,27.920687 45.715599,25.970013 45.360832,23.856733 
	C47.467171,23.462967 49.227966,23.231808 51.458549,22.995043 
	C110.546776,22.989939 169.165237,23.000410 227.783630,22.949736 
	C229.847656,22.947950 231.911179,22.338753 234.287506,22.155109 
	C236.517868,22.490974 238.435638,22.684385 240.353424,22.877796 
	C242.615189,24.909891 244.876953,26.941986 247.200836,29.599522 
	C247.542969,30.489597 247.822968,30.754234 248.102966,31.018867 
z"/>
<path fill="#161616" opacity="1.000000" stroke="none" 
	d="
M240.193710,22.551176 
	C238.435638,22.684385 236.517868,22.490974 233.821777,22.154081 
	C174.254745,22.007797 115.466026,21.995668 56.677357,22.044193 
	C54.780895,22.045757 52.884949,22.667835 50.988762,23.000648 
	C49.227966,23.231808 47.467171,23.462967 45.019386,23.856384 
	C43.878399,24.048817 43.424404,24.078995 42.617897,24.036335 
	C42.030895,23.912516 41.796406,23.861532 41.561916,23.810551 
	C45.677570,22.496958 49.788490,20.056665 53.909592,20.039354 
	C112.531441,19.793114 171.154770,19.835548 229.777328,19.977694 
	C233.198013,19.985989 236.615189,21.442175 240.193710,22.551176 
z"/>
<path fill="#0D0D0E" opacity="1.000000" stroke="none" 
	d="
M128.808823,179.435425 
	C131.264877,179.297028 133.720932,179.158630 136.395020,179.007950 
	C136.395020,171.901459 136.395020,165.011230 136.395020,157.544952 
	C134.386078,157.544952 132.605667,157.544937 130.825256,157.544937 
	C106.206291,157.545059 81.586922,157.615448 56.968777,157.472992 
	C53.073685,157.450470 49.184147,156.467636 45.122536,155.228729 
	C44.980904,154.030045 45.008778,153.531433 45.366737,153.033508 
	C46.137882,153.030975 46.578945,153.027740 47.415543,153.024536 
	C48.865986,153.031448 49.920891,153.038345 51.072739,153.438400 
	C52.345165,154.216629 53.519768,154.934479 54.696281,154.937622 
	C78.572090,155.001358 102.448311,155.020248 126.323662,154.896652 
	C127.887093,154.888580 129.444214,153.664078 131.378540,152.993576 
	C132.501648,152.978210 133.250488,152.974670 134.151520,153.274780 
	C135.877304,155.056320 137.450882,156.534195 139.015137,158.479340 
	C139.002106,165.631851 138.998398,172.317108 138.949036,179.374115 
	C137.674469,183.450623 134.530365,183.305115 131.730591,182.786057 
	C130.588837,182.574387 129.772964,180.605072 128.808823,179.435425 
z"/>
<path fill="#201F20" opacity="1.000000" stroke="none" 
	d="
M128.375793,179.324463 
	C129.772964,180.605072 130.588837,182.574387 131.730591,182.786057 
	C134.530365,183.305115 137.674469,183.450623 139.344009,179.278656 
	C139.854919,171.870697 139.925217,164.929977 140.234421,157.722900 
	C141.653427,157.303146 142.833511,157.149750 144.012451,157.465302 
	C144.011261,160.424454 143.891586,162.921692 144.037201,165.403351 
	C144.303375,169.940109 144.726456,174.467651 145.053802,178.955734 
	C145.023529,178.912430 145.097580,178.837036 145.108276,179.220886 
	C145.706497,180.338821 146.167740,181.512527 146.905243,181.724350 
	C149.097397,182.353989 151.394379,182.922043 153.657318,182.949799 
	C163.851959,183.074829 174.049713,182.949997 184.244308,183.077347 
	C185.458054,183.092499 186.659424,184.099731 187.866516,184.647125 
	C187.235992,185.413452 186.605469,186.179794 185.941132,186.646851 
	C184.277878,186.552017 182.648438,186.756454 180.638824,186.974533 
	C179.497879,186.984756 178.737122,186.981339 177.681183,186.686951 
	C164.836182,186.282349 152.286407,186.156845 139.736313,186.094131 
	C139.172913,186.091309 138.606659,186.658188 137.633942,186.971695 
	C136.138290,186.977432 135.050430,186.971207 133.667877,186.677155 
	C129.269775,186.259018 125.161842,186.208618 121.064285,185.975754 
	C117.037300,185.746902 113.020828,185.332809 109.085930,184.610870 
	C111.002296,183.815323 112.829659,183.093750 114.663338,183.077332 
	C117.324425,183.053497 118.281364,181.919006 118.043266,179.436340 
	C121.343102,179.362045 124.642937,179.287781 128.375793,179.324463 
z"/>
<path fill="#0C0C0C" opacity="1.000000" stroke="none" 
	d="
M133.962585,186.964981 
	C135.050430,186.971207 136.138290,186.977432 138.097580,186.980927 
	C151.971466,186.978088 164.973923,186.977997 177.976364,186.977905 
	C178.737122,186.981339 179.497879,186.984756 181.051651,186.982971 
	C183.221436,186.967239 184.598190,186.956696 185.974945,186.946136 
	C186.605469,186.179794 187.235992,185.413452 187.866516,184.647125 
	C186.659424,184.099731 185.458054,183.092499 184.244308,183.077347 
	C174.049713,182.949997 163.851959,183.074829 153.657318,182.949799 
	C151.394379,182.922043 149.097397,182.353989 146.905243,181.724350 
	C146.167740,181.512527 145.706497,180.338821 145.417679,179.271362 
	C146.123718,178.974030 146.531082,179.010040 146.938431,179.046051 
	C158.895279,179.110458 170.852112,179.174942 182.808960,179.239166 
	C183.971878,179.245407 185.525665,178.776718 186.220001,179.349854 
	C187.896744,180.733917 189.904861,182.448822 190.306686,184.342789 
	C190.514252,185.321167 187.700668,187.919205 186.045746,188.124863 
	C181.627228,188.673950 177.097015,188.334351 172.611221,188.330429 
	C147.358276,188.308304 122.105347,188.281006 96.616394,187.846130 
	C96.914352,187.293121 97.448318,187.149429 98.387138,186.999634 
	C99.870232,186.972870 100.948463,186.952194 102.492455,186.949631 
	C113.292999,186.966812 123.627792,186.965897 133.962585,186.964981 
z"/>
<path fill="#353536" opacity="1.000000" stroke="none" 
	d="
M34.229607,143.295761 
	C33.827385,140.024567 33.086716,136.754501 33.075684,133.481979 
	C32.973747,103.239601 32.914890,72.996277 33.100418,42.754810 
	C33.121315,39.348522 34.729683,35.951977 36.172134,32.340286 
	C37.144463,33.075710 37.546558,34.021763 37.710571,35.139946 
	C37.291714,35.858448 37.110950,36.404823 36.540749,37.060127 
	C35.750957,38.344276 35.003601,39.518723 35.000999,40.694813 
	C34.936615,69.837776 34.925076,98.981003 35.036438,128.123688 
	C35.041428,129.429138 36.289200,130.729858 36.962387,132.474716 
	C36.054314,136.376358 35.141960,139.836060 34.229607,143.295761 
z"/>
<path fill="#040505" opacity="1.000000" stroke="none" 
	d="
M225.003769,154.970871 
	C228.676819,155.187302 232.349869,155.403763 236.091034,155.971741 
	C233.964828,156.717468 231.771652,157.447388 229.576035,157.454819 
	C202.293488,157.547287 175.010605,157.534683 147.098480,157.490585 
	C146.469162,157.432053 146.023224,157.244507 146.020508,157.037170 
	C146.005264,156.548309 145.996033,156.266678 146.291443,155.695129 
	C148.404129,155.269485 150.215271,155.017899 152.026764,155.015289 
	C176.352402,154.980209 200.678085,154.979843 225.003769,154.970871 
z"/>
<path fill="#1D1C1D" opacity="1.000000" stroke="none" 
	d="
M36.930183,36.951195 
	C37.110950,36.404823 37.291714,35.858448 38.052757,35.200310 
	C40.039448,35.726086 41.445866,36.363625 42.908096,37.335953 
	C42.888317,38.112179 42.812729,38.553619 42.489426,38.875732 
	C41.498432,38.832966 40.755165,38.909527 39.717842,39.285065 
	C39.283035,40.559254 39.019936,41.534386 39.019264,42.509697 
	C38.998016,73.292801 38.988434,104.075943 39.047932,134.858932 
	C39.050602,136.240936 39.714970,137.621658 40.388145,138.999512 
	C41.126812,138.978485 41.548466,138.960922 41.786053,139.232071 
	C41.414291,140.865433 40.635822,142.522552 41.150501,143.495728 
	C42.649639,146.330246 41.511028,146.991714 38.751381,146.770782 
	C37.274696,145.690521 35.995823,144.865158 34.716949,144.039795 
	C34.716953,144.039795 34.319424,143.767914 34.274517,143.531830 
	C35.141960,139.836060 36.054314,136.376358 36.977623,132.002716 
	C36.969112,99.709579 36.949646,68.330391 36.930183,36.951195 
z"/>
<path fill="#161616" opacity="1.000000" stroke="none" 
	d="
M247.907806,33.118038 
	C247.947433,32.840862 247.987076,32.563686 248.088318,31.870522 
	C249.057846,33.268269 250.749939,35.078705 250.757568,36.896221 
	C250.902771,71.424179 250.852966,105.952980 250.806137,140.481552 
	C250.805359,141.057007 250.339050,141.631851 249.739532,142.214493 
	C249.254105,140.400162 249.119110,138.578308 248.990051,135.901276 
	C248.999008,104.091217 249.018188,73.136292 248.962158,42.181503 
	C248.959015,40.450176 248.335236,38.719967 248.000336,36.989239 
	C248.000336,36.989239 247.998169,37.001068 247.997726,36.611736 
	C247.967468,35.187614 247.937637,34.152828 247.907806,33.118038 
z"/>
<path fill="#0D0D0E" opacity="1.000000" stroke="none" 
	d="
M117.579880,179.347992 
	C118.281364,181.919006 117.324425,183.053497 114.663338,183.077332 
	C112.829659,183.093750 111.002296,183.815323 108.691650,184.616425 
	C106.145454,185.319504 104.079720,185.627884 102.013306,185.440582 
	C101.633270,183.702148 101.253914,182.459396 100.874550,181.216629 
	C102.051804,180.557343 103.201912,179.395050 104.411240,179.329758 
	C108.635277,179.101730 112.879776,179.252670 117.579880,179.347992 
z"/>
<path fill="#202021" opacity="1.000000" stroke="none" 
	d="
M42.852287,37.001167 
	C41.445866,36.363625 40.039448,35.726086 38.290844,35.028179 
	C37.546558,34.021763 37.144463,33.075710 36.407990,32.073997 
	C37.691933,29.350685 39.310253,26.683031 41.245247,23.912964 
	C41.796406,23.861532 42.030895,23.912516 42.616585,24.436279 
	C42.828075,28.305710 39.807236,31.942493 43.788441,35.277840 
	C43.463127,36.041492 43.157707,36.521332 42.852287,37.001167 
z"/>
<path fill="#686868" opacity="1.000000" stroke="none" 
	d="
M146.023224,157.244507 
	C146.023224,157.244507 146.469162,157.432053 146.629898,157.612808 
	C146.810852,164.564423 146.831085,171.335297 146.894867,178.576111 
	C146.531082,179.010040 146.123718,178.974030 145.406982,178.887512 
	C145.097580,178.837036 145.023529,178.912430 145.136047,178.534729 
	C145.506790,171.186188 145.765015,164.215347 146.023224,157.244507 
z"/>
<path fill="#0D0D0E" opacity="1.000000" stroke="none" 
	d="
M97.982285,187.005737 
	C97.448318,187.149429 96.914352,187.293121 96.202553,187.654968 
	C93.249496,186.597595 91.841721,184.608643 93.695183,181.772736 
	C95.376854,179.199661 97.670639,177.889450 100.091904,181.205551 
	C99.119545,183.597443 98.550919,185.301590 97.982285,187.005737 
z"/>
<path fill="#201F20" opacity="1.000000" stroke="none" 
	d="
M98.387138,186.999634 
	C98.550919,185.301590 99.119545,183.597443 100.120255,181.648926 
	C100.552330,181.404556 100.778793,181.335846 100.826675,181.276245 
	C101.253914,182.459396 101.633270,183.702148 102.012131,185.689850 
	C102.011635,186.434784 102.026703,186.931519 102.026703,186.931519 
	C100.948463,186.952194 99.870232,186.972870 98.387138,186.999634 
z"/>
<path fill="#1D1C1D" opacity="1.000000" stroke="none" 
	d="
M45.036648,153.032822 
	C45.008778,153.531433 44.980904,154.030045 44.916508,154.901428 
	C42.489670,153.468399 40.099354,151.662628 37.919353,149.442078 
	C38.364227,148.965790 38.598782,148.904282 39.143692,149.014145 
	C41.314919,150.467941 43.175781,151.750381 45.036648,153.032822 
z"/>
<path fill="#353536" opacity="1.000000" stroke="none" 
	d="
M38.833328,148.842789 
	C38.598782,148.904282 38.364227,148.965790 37.776207,149.113113 
	C36.553009,147.706100 35.683281,146.213272 34.765251,144.380127 
	C35.995823,144.865158 37.274696,145.690521 38.743267,147.074890 
	C38.899754,148.036865 38.866543,148.439819 38.833328,148.842789 
z"/>
<path fill="#201F20" opacity="1.000000" stroke="none" 
	d="
M241.484909,152.259644 
	C240.136383,152.047348 238.790161,151.802948 236.460114,151.379929 
	C239.008408,148.809418 240.312897,148.183273 241.376587,151.837891 
	C241.544617,152.198273 241.487198,152.227509 241.484909,152.259644 
z"/>
<path fill="#161616" opacity="1.000000" stroke="none" 
	d="
M247.430725,148.122833 
	C247.460739,146.891602 247.829834,145.525696 248.566071,144.082153 
	C248.545410,145.332397 248.157608,146.660278 247.430725,148.122833 
z"/>
<path fill="#161616" opacity="1.000000" stroke="none" 
	d="
M248.117828,30.695400 
	C247.822968,30.754234 247.542969,30.489597 247.183624,29.939827 
	C247.447098,29.893772 247.789902,30.132851 248.117828,30.695400 
z"/>
<path fill="#040505" opacity="1.000000" stroke="none" 
	d="
M238.291962,156.034210 
	C238.228653,155.759354 238.462372,155.500015 238.947937,155.146057 
	C238.996170,155.384216 238.792572,155.716980 238.291962,156.034210 
z"/>
<path fill="#161616" opacity="1.000000" stroke="none" 
	d="
M244.438156,151.290497 
	C244.359680,151.025909 244.606873,150.675659 245.165695,150.216919 
	C245.239502,150.473907 245.001663,150.839371 244.438156,151.290497 
z"/>
<path fill="#F8F8F9" opacity="1.000000" stroke="none" 
	d="
M42.908096,37.335953 
	C43.157707,36.521332 43.463127,36.041492 43.977798,35.023880 
	C45.218304,33.210262 46.249561,31.934422 47.280819,30.658579 
	C48.321724,30.246643 49.362633,29.834709 51.159210,29.315687 
	C88.835846,29.214729 125.756828,29.242620 162.677780,29.219181 
	C186.455978,29.204086 210.234146,29.113611 234.012329,29.056921 
	C236.359467,31.420807 238.706589,33.784695 241.330673,36.590183 
	C241.718506,37.360722 241.829361,37.689663 241.940231,38.018604 
	C241.883499,38.463722 241.826767,38.908840 241.804596,40.139534 
	C241.834351,47.089401 241.839157,53.253723 241.823120,59.417984 
	C241.752884,86.404778 241.676590,113.391556 241.602509,140.378342 
	C239.916046,142.473068 238.229568,144.567795 235.948120,146.870880 
	C234.582611,147.490326 233.812073,147.901428 232.570435,148.313751 
	C172.055023,148.329269 112.010727,148.343567 51.719727,148.104279 
	C50.331898,147.540588 49.190769,147.230484 47.855770,146.680099 
	C46.722210,145.647995 45.782516,144.856140 44.827831,143.766663 
	C44.222946,142.958389 43.633049,142.447739 43.074295,141.523407 
	C42.984894,139.737625 42.864349,138.365555 42.813568,136.529831 
	C42.834606,103.709152 42.785873,71.352104 42.737144,38.995060 
	C42.812729,38.553619 42.888317,38.112179 42.908096,37.335953 
M174.614273,97.152824 
	C181.593613,90.210991 188.576218,83.272423 195.550858,76.325859 
	C198.740829,73.148720 202.092178,70.109230 205.033127,66.715126 
	C206.935043,64.520180 208.777985,61.904980 205.844055,58.923370 
	C202.949890,55.982189 200.855957,57.737881 198.700500,59.896698 
	C188.705872,69.906891 178.592163,79.802277 168.808105,90.013786 
	C167.490463,91.388985 166.828934,94.774879 167.594772,96.427414 
	C168.639252,98.681190 171.446854,99.466423 174.614273,97.152824 
z"/>
<path fill="#0C0C0C" opacity="1.000000" stroke="none" 
	d="
M51.966419,148.357880 
	C112.010727,148.343567 172.055023,148.329269 232.698303,148.527130 
	C233.784714,148.747894 234.272156,148.756485 234.759598,148.765076 
	C234.362961,149.175827 233.966309,149.586578 232.808197,150.003983 
	C170.700867,149.994797 109.354965,149.978943 48.011192,149.594055 
	C48.028187,148.732285 48.043064,148.239563 48.343086,147.884872 
	C49.740955,148.134552 50.853687,148.246216 51.966419,148.357880 
z"/>
<path fill="#010101" opacity="1.000000" stroke="none" 
	d="
M233.938477,28.650698 
	C210.234146,29.113611 186.455978,29.204086 162.677780,29.219181 
	C125.756828,29.242620 88.835846,29.214729 51.449409,29.140741 
	C52.745827,28.381252 54.506016,27.090866 56.269855,27.085854 
	C96.848000,26.970577 137.426544,26.995955 178.005020,26.993481 
	C194.801849,26.992458 211.598877,26.948973 228.395187,27.039711 
	C230.220459,27.049570 232.041580,27.824446 233.938477,28.650698 
z"/>
<path fill="#201F20" opacity="1.000000" stroke="none" 
	d="
M225.086823,154.600372 
	C200.678085,154.979843 176.352402,154.980209 152.026764,155.015289 
	C150.215271,155.017899 148.404129,155.269485 145.965271,155.705170 
	C144.903503,156.029099 144.469284,156.053177 143.885620,155.733795 
	C143.489761,153.930878 143.243347,152.471436 143.465790,151.007843 
	C173.289673,151.004120 202.644714,151.004562 231.999771,151.005005 
	C230.880478,151.669601 229.801163,152.418365 228.630325,152.974426 
	C227.526962,153.498444 226.327225,153.819504 225.086823,154.600372 
z"/>
<path fill="#040505" opacity="1.000000" stroke="none" 
	d="
M241.805313,140.625702 
	C241.676590,113.391556 241.752884,86.404778 241.823120,59.417984 
	C241.839157,53.253723 241.834351,47.089401 241.915344,40.461731 
	C242.616348,40.939941 243.782791,41.878899 243.787384,42.823494 
	C243.934052,73.047829 244.015198,103.272842 243.931885,133.497269 
	C243.925110,135.957626 242.678574,138.414551 241.805313,140.625702 
z"/>
<path fill="#2E2D2F" opacity="1.000000" stroke="none" 
	d="
M232.213959,150.896622 
	C202.644714,151.004562 173.289673,151.004120 143.036270,151.003235 
	C139.425064,151.658890 136.712204,152.315002 133.999344,152.971130 
	C133.250488,152.974670 132.501648,152.978210 130.998566,152.919189 
	C128.108215,152.237411 125.975266,151.093124 123.835495,151.080231 
	C102.555756,150.952042 81.274895,151.010681 59.566662,151.011597 
	C57.426929,151.007050 55.714890,151.007446 53.602623,151.004364 
	C52.135120,151.006912 51.067841,151.012939 49.703735,150.991455 
	C48.940639,150.643433 48.474369,150.322937 48.005245,149.994614 
	C48.002392,149.986801 48.009075,149.963089 48.009075,149.963089 
	C109.354965,149.978943 170.700867,149.994797 232.513000,150.015839 
	C232.883530,150.339981 232.699829,150.595703 232.213959,150.896622 
z"/>
<path fill="#313233" opacity="1.000000" stroke="none" 
	d="
M51.458549,22.995045 
	C52.884949,22.667835 54.780895,22.045757 56.677357,22.044193 
	C115.466026,21.995668 174.254745,22.007797 233.509186,22.011625 
	C231.911179,22.338753 229.847656,22.947950 227.783630,22.949736 
	C169.165237,23.000410 110.546776,22.989939 51.458549,22.995045 
z"/>
<path fill="#2E2D2F" opacity="1.000000" stroke="none" 
	d="
M248.002075,37.458984 
	C248.335236,38.719967 248.959015,40.450176 248.962158,42.181503 
	C249.018188,73.136292 248.999008,104.091217 248.991882,135.512192 
	C248.660553,134.081284 248.051834,132.184860 248.048126,130.287247 
	C247.987991,99.501152 248.004562,68.714928 248.002075,37.458984 
z"/>
<path fill="#1D1C1D" opacity="1.000000" stroke="none" 
	d="
M47.198517,30.264969 
	C46.249561,31.934422 45.218304,33.210262 43.997688,34.740063 
	C39.807236,31.942493 42.828075,28.305710 42.969093,24.509117 
	C43.424404,24.078995 43.878399,24.048817 44.673843,24.018990 
	C45.715599,25.970013 46.415905,27.920687 47.198517,30.264969 
z"/>
<path fill="#5A5A5B" opacity="1.000000" stroke="none" 
	d="
M234.927979,148.559769 
	C234.272156,148.756485 233.784714,148.747894 233.169403,148.525909 
	C233.812073,147.901428 234.582611,147.490326 235.691071,147.087769 
	C235.718140,147.515671 235.407257,147.935074 234.927979,148.559769 
z"/>
<path fill="#2E2D2F" opacity="1.000000" stroke="none" 
	d="
M247.658875,33.318832 
	C247.937637,34.152828 247.967468,35.187614 248.003448,36.613358 
	C247.809723,35.842747 247.609833,34.681187 247.658875,33.318832 
z"/>
<path fill="#040505" opacity="1.000000" stroke="none" 
	d="
M242.193085,37.862747 
	C241.829361,37.689663 241.718506,37.360722 241.634918,36.771553 
	C242.002762,36.335487 242.343338,36.159645 242.683899,35.983803 
	C242.604568,36.558163 242.525253,37.132526 242.193085,37.862747 
z"/>
<path fill="#201F20" opacity="1.000000" stroke="none" 
	d="
M50.000565,151.018967 
	C51.067841,151.012939 52.135120,151.006912 53.679237,151.368408 
	C56.338745,153.416153 58.429260,154.348480 59.994350,151.016571 
	C81.274895,151.010681 102.555756,150.952042 123.835495,151.080231 
	C125.975266,151.093124 128.108215,152.237411 130.624298,152.931015 
	C129.444214,153.664078 127.887093,154.888580 126.323662,154.896652 
	C102.448311,155.020248 78.572090,155.001358 54.696281,154.937622 
	C53.519768,154.934479 52.345165,154.216629 50.977631,153.172058 
	C50.523911,152.014694 50.262238,151.516830 50.000565,151.018967 
z"/>
<path fill="#202021" opacity="1.000000" stroke="none" 
	d="
M48.057945,147.746841 
	C48.043064,148.239563 48.028187,148.732285 48.011192,149.594055 
	C48.009075,149.963089 48.002392,149.986801 47.701279,150.032654 
	C47.273449,151.060516 47.146725,152.042511 47.020004,153.024521 
	C46.578945,153.027740 46.137882,153.030975 45.366737,153.033508 
	C43.175781,151.750381 41.314919,150.467941 39.143692,149.014145 
	C38.866543,148.439819 38.899754,148.036865 38.941078,147.329788 
	C41.511028,146.991714 42.649639,146.330246 41.150501,143.495728 
	C40.635822,142.522552 41.414291,140.865433 41.799141,138.956757 
	C42.245468,137.926315 42.494637,137.459885 42.743805,136.993469 
	C42.864349,138.365555 42.984894,139.737625 42.996090,141.866272 
	C43.538769,143.103317 44.190792,143.583817 44.842819,144.064301 
	C45.782516,144.856140 46.722210,145.647995 47.840469,146.886902 
	C48.019035,147.333954 48.057945,147.746841 48.057945,147.746841 
M43.417759,150.483414 
	C43.417759,150.483414 43.522320,150.422485 43.417759,150.483414 
z"/>
<path fill="#1D1C1D" opacity="1.000000" stroke="none" 
	d="
M134.151520,153.274780 
	C136.712204,152.315002 139.425064,151.658890 142.567444,151.007385 
	C143.243347,152.471436 143.489761,153.930878 143.879639,155.963104 
	C144.023132,156.535889 144.013596,156.996338 144.013596,156.996338 
	C142.833511,157.149750 141.653427,157.303146 139.991669,157.727707 
	C139.509995,157.998871 139.024475,158.012085 139.024475,158.012085 
	C137.450882,156.534195 135.877304,155.056320 134.151520,153.274780 
z"/>
<path fill="#242425" opacity="1.000000" stroke="none" 
	d="
M139.015137,158.479340 
	C139.024475,158.012085 139.509995,157.998871 139.752747,157.994064 
	C139.925217,164.929977 139.854919,171.870697 139.389648,178.906891 
	C138.998398,172.317108 139.002106,165.631851 139.015137,158.479340 
z"/>
<path fill="#1D1C1D" opacity="1.000000" stroke="none" 
	d="
M47.415539,153.024536 
	C47.146725,152.042511 47.273449,151.060516 47.704132,150.040466 
	C48.474369,150.322937 48.940639,150.643433 49.703735,150.991455 
	C50.262238,151.516830 50.523911,152.014694 50.880692,152.778900 
	C49.920891,153.038345 48.865986,153.031448 47.415539,153.024536 
z"/>
<path fill="#282729" opacity="1.000000" stroke="none" 
	d="
M177.681183,186.686935 
	C164.973923,186.977997 151.971466,186.978088 138.505386,186.968964 
	C138.606659,186.658188 139.172913,186.091309 139.736313,186.094131 
	C152.286407,186.156845 164.836182,186.282349 177.681183,186.686935 
z"/>
<path fill="#282729" opacity="1.000000" stroke="none" 
	d="
M102.492455,186.949615 
	C102.026703,186.931519 102.011635,186.434784 102.012810,186.185516 
	C104.079720,185.627884 106.145454,185.319504 108.605469,185.005554 
	C113.020828,185.332809 117.037300,185.746902 121.064285,185.975754 
	C125.161842,186.208618 129.269775,186.259018 133.667877,186.677155 
	C123.627792,186.965897 113.292999,186.966812 102.492455,186.949615 
z"/>
<path fill="#0C0C0C" opacity="1.000000" stroke="none" 
	d="
M144.012451,157.465302 
	C144.013596,156.996338 144.023132,156.535889 144.029114,156.306580 
	C144.469284,156.053177 144.903503,156.029099 145.663879,155.994965 
	C145.996033,156.266678 146.005264,156.548309 146.020508,157.037170 
	C145.765015,164.215347 145.506790,171.186188 145.166321,178.578033 
	C144.726456,174.467651 144.303375,169.940109 144.037201,165.403351 
	C143.891586,162.921692 144.011261,160.424454 144.012451,157.465302 
z"/>
<path fill="#282729" opacity="1.000000" stroke="none" 
	d="
M185.941132,186.646866 
	C184.598190,186.956696 183.221436,186.967239 181.431839,186.969330 
	C182.648438,186.756454 184.277878,186.552017 185.941132,186.646866 
z"/>
<path fill="#282729" opacity="1.000000" stroke="none" 
	d="
M36.540749,37.060127 
	C36.949646,68.330391 36.969112,99.709579 36.973343,131.560776 
	C36.289200,130.729858 35.041428,129.429138 35.036438,128.123688 
	C34.925076,98.981003 34.936615,69.837776 35.000999,40.694813 
	C35.003601,39.518723 35.750957,38.344276 36.540749,37.060127 
z"/>
<path fill="#010101" opacity="1.000000" stroke="none" 
	d="
M42.813568,136.529831 
	C42.494637,137.459885 42.245468,137.926315 41.983212,138.668045 
	C41.548466,138.960922 41.126812,138.978485 40.376854,138.530289 
	C40.036335,105.038383 40.024113,72.012238 40.011894,38.986088 
	C40.755165,38.909527 41.498432,38.832966 42.489426,38.875732 
	C42.785873,71.352104 42.834606,103.709152 42.813568,136.529831 
z"/>
<path fill="#282729" opacity="1.000000" stroke="none" 
	d="
M39.717842,39.285065 
	C40.024113,72.012238 40.036335,105.038383 40.059845,138.533752 
	C39.714970,137.621658 39.050602,136.240936 39.047932,134.858932 
	C38.988434,104.075943 38.998016,73.292801 39.019264,42.509697 
	C39.019936,41.534386 39.283035,40.559254 39.717842,39.285065 
z"/>
<path fill="#242425" opacity="1.000000" stroke="none" 
	d="
M174.300385,97.322113 
	C171.446854,99.466423 168.639252,98.681190 167.594772,96.427414 
	C166.828934,94.774879 167.490463,91.388985 168.808105,90.013786 
	C178.592163,79.802277 188.705872,69.906891 198.700500,59.896698 
	C200.855957,57.737881 202.949890,55.982189 205.844055,58.923370 
	C208.777985,61.904980 206.935043,64.520180 205.033127,66.715126 
	C202.092178,70.109230 198.740829,73.148720 195.550858,76.325859 
	C188.576218,83.272423 181.593613,90.210991 174.300385,97.322113 
M171.406952,90.644707 
	C172.391144,90.919342 173.375320,91.193970 174.359528,91.468605 
	C174.430328,90.895752 174.501129,90.322899 174.571915,89.750038 
	C173.614365,89.839294 172.656799,89.928558 171.406952,90.644707 
M195.650940,70.177002 
	C195.242874,69.519096 194.834808,68.861198 194.426743,68.203293 
	C194.020416,68.602837 193.614075,69.002380 193.207748,69.401924 
	C193.857971,69.821075 194.508194,70.240219 195.650940,70.177002 
M170.801071,94.405411 
	C170.796661,94.791771 170.792267,95.178131 170.787872,95.564484 
	C170.948090,95.566185 171.247559,95.578705 171.248383,95.568039 
	C171.278244,95.183372 171.280273,94.796547 170.801071,94.405411 
M183.594376,79.802597 
	C183.208633,79.798126 182.822891,79.793663 182.437149,79.789192 
	C182.435684,79.949211 182.423340,80.248260 182.434341,80.249123 
	C182.818069,80.279175 183.203995,80.281143 183.594376,79.802597 
z"/>
<path fill="#5A5A5B" opacity="1.000000" stroke="none" 
	d="
M48.343086,147.884872 
	C48.057945,147.746841 48.019035,147.333954 48.034336,147.127167 
	C49.190769,147.230484 50.331898,147.540588 51.719727,148.104294 
	C50.853687,148.246216 49.740955,148.134552 48.343086,147.884872 
z"/>
<path fill="#5A5A5B" opacity="1.000000" stroke="none" 
	d="
M44.827831,143.766663 
	C44.190792,143.583817 43.538769,143.103317 42.964947,142.279968 
	C43.633049,142.447739 44.222946,142.958389 44.827831,143.766663 
z"/>
<path fill="#1D1C1D" opacity="1.000000" stroke="none" 
	d="
M59.566662,151.011597 
	C58.429260,154.348480 56.338745,153.416153 54.079460,151.371887 
	C55.714890,151.007446 57.426929,151.007050 59.566662,151.011597 
z"/>
<path fill="#1D1C1D" opacity="1.000000" stroke="none" 
	d="
M43.470039,150.452942 
	C43.522320,150.422485 43.417759,150.483414 43.470039,150.452942 
z"/>
<path fill="#201F20" opacity="1.000000" stroke="none" 
	d="
M171.553101,90.331261 
	C172.656799,89.928558 173.614365,89.839294 174.571930,89.750038 
	C174.501129,90.322899 174.430328,90.895752 174.359528,91.468605 
	C173.375320,91.193970 172.391144,90.919342 171.553101,90.331261 
z"/>
<path fill="#201F20" opacity="1.000000" stroke="none" 
	d="
M195.404678,70.418182 
	C194.508194,70.240219 193.857971,69.821075 193.207748,69.401924 
	C193.614075,69.002380 194.020416,68.602837 194.426743,68.203293 
	C194.834808,68.861198 195.242874,69.519096 195.404678,70.418182 
z"/>
<path fill="#201F20" opacity="1.000000" stroke="none" 
	d="
M171.043610,94.407715 
	C171.280273,94.796547 171.278244,95.183372 171.248383,95.568039 
	C171.247559,95.578705 170.948090,95.566185 170.787872,95.564484 
	C170.792267,95.178131 170.796661,94.791771 171.043610,94.407715 
z"/>
<path fill="#201F20" opacity="1.000000" stroke="none" 
	d="
M183.591980,80.044846 
	C183.203995,80.281143 182.818069,80.279175 182.434341,80.249123 
	C182.423340,80.248260 182.435684,79.949211 182.437149,79.789200 
	C182.822891,79.793663 183.208633,79.798126 183.591980,80.044846 
z"/>
</svg>