<svg version="1.1" id="Layer_1" xmlns="http://www.w3.org/2000/svg" xmlns:xlink="http://www.w3.org/1999/xlink" x="0px" y="0px"
	 width="100%" viewBox="0 0 672 592" enable-background="new 0 0 672 592" xml:space="preserve">
<path fill="#000000" opacity="1.000000" stroke="none" 
	d="
M150.849945,544.156128 
	C137.629807,530.777771 132.225021,515.016113 133.532822,496.637482 
	C134.083771,488.895020 133.620224,488.965485 126.003044,488.899414 
	C117.011147,488.821381 108.023132,489.134521 99.025085,488.461243 
	C81.350281,487.138794 66.938454,472.118378 66.904686,454.369568 
	C66.841270,421.039459 66.794876,387.708618 66.955032,354.379120 
	C67.087959,326.715363 88.590485,300.521637 115.734734,294.644989 
	C118.967133,293.945160 120.926369,292.305267 122.220680,289.199463 
	C134.836044,258.928070 147.684631,228.753494 160.228867,198.452850 
	C172.121506,169.726135 193.793365,153.132156 223.793427,147.172104 
	C232.566437,145.429169 241.694199,145.576843 250.692062,145.902283 
	C254.680069,146.046539 256.629517,145.347946 256.437286,140.412735 
	C256.022888,129.773209 256.415619,119.096680 256.645142,108.438896 
	C256.996552,92.122040 268.446564,80.953621 284.705444,80.948174 
	C315.702545,80.937790 346.699677,80.955658 377.696777,80.950264 
	C392.906982,80.947617 404.782104,92.156593 405.236359,107.426949 
	C405.553375,118.083351 405.553925,128.763367 405.227112,139.418472 
	C405.074371,144.396866 406.491699,146.135941 411.658997,146.011307 
	C424.642090,145.698135 437.570374,146.009216 450.158203,150.233124 
	C475.316650,158.675156 492.270599,175.400314 502.302734,199.793182 
	C514.709595,229.960098 527.507874,259.965973 540.094482,290.059174 
	C541.150024,292.582886 542.753357,294.017487 545.494934,294.627167 
	C573.994690,300.965088 594.960999,326.699188 595.101074,355.769806 
	C595.252808,387.266205 595.168457,418.763794 595.164673,450.260864 
	C595.161865,473.721069 580.912659,488.364685 557.472961,488.891174 
	C549.977539,489.059540 542.474976,488.888977 534.975830,488.918793 
	C528.794739,488.943390 528.402161,489.336548 528.401184,495.388153 
	C528.399658,504.872101 528.379456,514.191895 525.000916,523.435120 
	C511.761292,559.656860 463.646515,572.169128 434.804047,546.642639 
	C420.724426,534.181702 413.922058,518.727173 414.550507,499.798706 
	C414.936951,488.160004 415.802399,488.935455 403.936890,488.928894 
	C357.774353,488.903412 311.611786,488.895477 265.449249,488.883209 
	C260.957184,488.882019 256.464203,488.954224 251.973312,488.884613 
	C248.493057,488.830719 247.597351,490.287476 247.701172,493.800812 
	C248.047012,505.503906 247.325241,517.121948 241.882935,527.868713 
	C224.734848,561.730469 181.044067,571.932495 150.849945,544.156128 
M548.490479,459.003174 
	C551.323547,458.992706 554.156677,458.987579 556.989685,458.970764 
	C564.186157,458.928101 565.841919,457.346985 565.851135,450.157257 
	C565.890320,419.660645 565.906311,389.163910 565.871887,358.667328 
	C565.867920,355.186737 565.866211,351.695160 564.806030,348.273560 
	C559.413330,330.869354 546.711975,321.882141 527.572937,321.884888 
	C396.587341,321.903625 265.601715,321.904846 134.616104,321.899750 
	C110.929970,321.898834 96.202583,336.476959 96.142365,360.203461 
	C96.073425,387.367004 96.104515,414.530823 96.104919,441.694519 
	C96.104973,445.360199 96.030556,449.035278 96.260422,452.689026 
	C96.500725,456.508667 98.408829,458.917908 102.582321,458.889496 
	C104.248367,458.878174 105.914810,458.944733 107.581085,458.945740 
	C204.390732,459.003876 301.200378,459.079742 398.010010,459.105408 
	C447.837830,459.118622 497.665649,459.041718 548.490479,459.003174 
M156.186691,284.579926 
	C155.539642,287.062622 153.711166,289.259216 154.179428,292.347412 
	C272.319153,292.347412 390.262421,292.347412 507.930481,292.347412 
	C508.851196,290.534363 508.029053,289.533417 507.598907,288.502411 
	C496.516815,261.940186 485.497284,235.351486 474.294708,208.840118 
	C465.060455,186.986923 447.494904,175.692978 424.708466,175.388580 
	C362.255249,174.554337 299.776917,174.568069 237.322861,175.366226 
	C214.019119,175.664047 196.557281,187.534546 187.260437,209.684418 
	C176.897583,234.374039 166.671402,259.121002 156.186691,284.579926 
M376.621246,132.476593 
	C376.615845,126.654472 376.470337,120.827896 376.655396,115.011833 
	C376.774200,111.277023 375.156769,110.053108 371.607483,110.061150 
	C344.493011,110.122643 317.378265,110.116905 290.263824,110.043388 
	C286.601471,110.033455 285.281067,111.516266 285.351715,115.139534 
	C285.513824,123.453491 285.646301,131.784271 285.282837,140.085983 
	C285.074493,144.844360 286.883209,146.024323 291.327606,145.994629 
	C315.613342,145.832397 339.900940,145.983047 364.187378,145.887711 
	C378.658264,145.830887 376.409912,147.685928 376.621246,132.476593 
M464.122437,529.489441 
	C481.541962,534.369812 498.570404,521.654114 498.905243,503.509003 
	C498.954346,500.846954 498.973602,498.184174 498.984100,495.521637 
	C499.008759,489.276733 498.744263,488.948059 492.640472,488.927704 
	C480.825043,488.888336 469.007660,488.794220 457.194336,488.958008 
	C442.159393,489.166412 443.859528,486.486908 444.120361,502.660706 
	C444.337769,516.142029 450.763458,524.759705 464.122437,529.489441 
M216.184311,513.467529 
	C218.856705,506.560974 217.837250,499.339081 217.967346,492.220490 
	C218.013794,489.678741 216.436066,488.728699 214.080261,488.742218 
	C198.584961,488.830933 183.089478,488.899994 167.594421,489.021088 
	C165.799942,489.035095 163.367371,488.902466 163.315033,491.375885 
	C163.143936,499.462341 161.611755,507.769714 165.742722,515.387451 
	C171.029037,525.135742 179.405624,530.567078 190.407394,530.549927 
	C202.059540,530.531860 210.549164,524.571716 216.184311,513.467529 
z"/>
<path fill="#000000" opacity="1.000000" stroke="none" 
	d="
M236.153503,385.420898 
	C238.093765,403.682007 232.487701,418.628632 218.088028,429.383392 
	C203.035599,440.625671 186.338074,442.220917 169.607651,433.657959 
	C152.122299,424.708649 143.861221,409.812866 144.515808,390.019989 
	C145.234299,368.294952 161.445053,348.354095 187.196671,346.247742 
	C208.899246,344.472626 229.363281,358.040161 235.341614,381.551575 
	C235.628754,382.680847 235.850082,383.826874 236.153503,385.420898 
M176.551682,401.774963 
	C183.446457,410.431213 194.361832,411.670410 201.862625,404.648407 
	C209.095062,397.877716 208.916733,386.705841 201.466263,379.818604 
	C195.835312,374.613251 187.102402,374.169434 180.750778,378.765686 
	C173.846497,383.761871 172.062637,392.440765 176.551682,401.774963 
z"/>
<path fill="#000000" opacity="1.000000" stroke="none" 
	d="
M439.114624,408.594421 
	C431.079132,383.045746 442.309570,358.580933 466.067291,349.233521 
	C495.550323,337.633423 527.490906,359.637939 528.543396,391.305298 
	C529.337952,415.211334 510.653748,438.608185 483.036316,438.752045 
	C462.290955,438.860138 447.521820,428.191132 439.114624,408.594421 
M477.204773,376.541138 
	C475.994904,377.099823 474.738708,377.576721 473.582977,378.231049 
	C467.957001,381.416412 465.072968,388.207397 466.196411,395.491791 
	C467.113037,401.435181 472.342438,407.363861 477.784027,408.628937 
	C485.170288,410.346100 492.539093,407.553345 496.657928,401.475891 
	C499.777527,396.872803 499.779449,388.019684 496.661896,383.379913 
	C492.394897,377.029541 485.792847,374.535034 477.204773,376.541138 
z"/>
</svg>