<svg version="1.1" id="Layer_1" xmlns="http://www.w3.org/2000/svg" xmlns:xlink="http://www.w3.org/1999/xlink" x="0px" y="0px"
	 width="100%" viewBox="0 0 1024 1024" enable-background="new 0 0 1024 1024" xml:space="preserve">
<path fill="#000000" opacity="1.000000" stroke="none" 
	d="
M499.439819,728.657471 
	C483.900940,733.197327 469.078918,738.746033 453.687103,742.420105 
	C436.592407,746.500732 426.665497,732.802490 429.309174,717.844299 
	C431.587921,704.950989 435.215668,692.284546 438.499969,679.583191 
	C443.783875,659.148987 449.292847,638.773010 454.647339,618.356934 
	C455.053619,616.807800 456.026978,615.259583 455.127411,613.203369 
	C452.202728,612.769348 449.445953,614.097412 446.680603,614.932983 
	C419.288727,623.209656 392.024841,631.929199 364.516785,639.796387 
	C338.409912,647.262817 311.646942,649.205078 284.968201,643.874329 
	C252.214996,637.329956 227.693192,618.400879 211.357986,589.544617 
	C195.342743,561.253540 177.567200,534.072998 160.679535,506.334778 
	C153.318756,494.244629 146.117538,482.056000 139.577866,469.487823 
	C136.264923,463.120880 135.790634,456.334595 136.940018,449.540100 
	C138.286636,441.579742 143.391052,436.113647 150.529633,432.697357 
	C161.794388,427.306427 173.089691,421.966370 184.511154,416.919556 
	C195.225861,412.185028 205.369797,414.869385 214.191376,421.404114 
	C225.554398,429.821411 236.306976,439.067474 247.256668,448.036926 
	C264.011169,461.761505 280.740295,475.517609 297.399231,489.357788 
	C299.972198,491.495422 302.337463,492.056427 305.606537,491.028564 
	C346.074524,478.304077 386.581055,465.702118 427.075287,453.061066 
	C427.998474,452.772888 428.894318,452.397095 429.713654,452.095062 
	C430.257812,449.682312 428.557312,448.470886 427.556183,447.070374 
	C397.912048,405.600525 368.231445,364.156708 338.532013,322.726410 
	C333.695648,315.979797 330.101532,309.043884 330.476624,300.221161 
	C330.832550,291.848999 334.150818,285.467712 340.572876,280.572784 
	C343.465363,278.368134 346.643158,276.388611 349.962738,274.920044 
	C362.140503,269.532562 374.549072,264.657745 386.652740,259.113983 
	C403.689209,251.310852 419.068176,255.215164 432.891327,266.005615 
	C454.160248,282.608215 474.857422,299.942719 495.816345,316.943085 
	C528.550903,343.494995 561.348083,369.970184 593.972778,396.656281 
	C597.218567,399.311218 599.914246,399.149628 603.488831,398.080627 
	C646.990967,385.070435 690.437378,371.860260 734.088257,359.365814 
	C762.261475,351.301636 791.145630,347.706116 820.453430,350.784668 
	C850.432251,353.933685 879.447083,360.769318 906.061401,375.735535 
	C919.817688,383.471191 930.725098,393.675262 934.143921,409.652374 
	C937.842468,426.937042 931.722107,441.704346 920.788635,454.860962 
	C908.780579,469.310608 892.670837,476.668610 875.138000,482.022888 
	C823.746277,497.717255 772.452393,513.732056 721.123779,529.632751 
	C680.921875,542.086487 640.755188,554.655518 600.489929,566.900696 
	C595.231995,568.499695 592.338623,571.205872 589.868774,576.091003 
	C576.117554,603.289734 561.890503,630.247742 547.873596,657.312561 
	C538.452942,675.502625 528.901550,693.629944 519.825073,711.991150 
	C515.519531,720.701111 509.158844,726.249146 499.439819,728.657471 
M447.259857,413.279022 
	C455.652039,424.889984 463.987854,436.542267 472.451721,448.100708 
	C481.557220,460.535309 477.118378,474.822174 462.529297,479.525574 
	C458.575317,480.800354 454.521179,481.760712 450.541962,482.961273 
	C403.395264,497.186127 356.207092,511.276855 309.143524,525.771973 
	C297.000580,529.511841 287.232269,527.582642 277.460114,519.101196 
	C251.288727,496.386200 224.501724,474.380310 197.941925,452.113464 
	C196.315048,450.749573 194.612213,448.589447 192.322479,449.540894 
	C185.935410,452.194977 179.711090,455.240692 173.021286,458.316284 
	C176.454849,464.387512 179.322784,469.813416 182.513580,475.042267 
	C201.692444,506.471069 221.411804,537.581116 240.036697,569.333679 
	C257.181335,598.562683 282.346191,612.698792 315.756165,612.546143 
	C328.407806,612.488342 340.955750,610.362488 353.197815,607.136597 
	C383.771484,599.080078 413.739929,588.995483 443.915955,579.610657 
	C529.385864,553.028870 614.840271,526.397034 700.306885,499.804749 
	C739.066284,487.745056 777.869263,475.824371 816.595459,463.659210 
	C836.273560,457.477661 856.292053,452.329773 875.518738,444.765869 
	C883.946655,441.450317 891.873413,437.146027 897.765076,429.981995 
	C903.395691,423.135437 903.065674,417.256287 896.806091,410.979767 
	C893.120300,407.284058 888.703064,404.540497 884.022095,402.341980 
	C844.691589,383.869781 803.449036,379.418488 761.258240,388.275604 
	C728.543030,395.143494 697.083862,406.966827 664.888000,415.983795 
	C643.746399,421.904785 622.808899,428.551483 601.749695,434.770844 
	C593.039490,437.343201 585.538452,435.795746 578.135681,429.744171 
	C524.342773,385.769958 470.186371,342.240173 416.434479,298.216309 
	C409.260986,292.341125 403.123169,289.810272 394.292389,294.244781 
	C386.226227,298.295349 377.092499,300.002075 368.341888,304.183350 
	C394.732178,340.642822 420.802368,376.660065 447.259857,413.279022 
M469.468628,687.850037 
	C468.693359,692.932373 466.243500,697.766724 466.446533,703.837585 
	C473.835999,701.608398 480.330322,699.645081 486.827698,697.691711 
	C488.789337,697.102051 489.648010,695.464417 490.517700,693.844971 
	C509.582764,658.346069 528.649353,622.848022 547.678711,587.329895 
	C548.317993,586.136597 549.527832,585.004150 548.734985,582.834351 
	C532.014832,588.059937 515.403076,593.361206 498.709747,598.391907 
	C494.523712,599.653442 492.571411,602.058777 491.477997,606.193848 
	C484.341431,633.182800 476.993225,660.115784 469.468628,687.850037 
z"/>
</svg>