<svg version="1.1" id="Layer_1" xmlns="http://www.w3.org/2000/svg" xmlns:xlink="http://www.w3.org/1999/xlink" x="0px" y="0px"
	 width="100%" viewBox="0 0 512 512" enable-background="new 0 0 512 512" xml:space="preserve">
<path fill="#FEFEFE" opacity="1.000000" stroke="none" 
	d="
M513.000000,224.000000 
	C513.000000,320.295135 513.000000,416.590302 513.000000,512.942749 
	C342.439209,512.942749 171.878372,512.942749 1.000000,512.942749 
	C1.000000,416.977600 1.000000,320.954834 1.327857,224.575317 
	C4.134634,226.769287 6.199440,230.080719 9.182798,231.704773 
	C14.595205,234.651138 19.633871,232.454849 24.385418,228.970856 
	C100.731438,172.991425 177.132431,117.086945 253.468185,61.093544 
	C255.958298,59.266994 257.598969,58.919750 260.300690,60.904423 
	C317.823944,103.160568 375.426758,145.308411 433.018585,187.471207 
	C452.082031,201.427505 471.114014,215.427399 490.247864,229.286545 
	C499.005829,235.630188 506.395142,234.020538 511.968140,224.933395 
	C512.200806,224.554047 512.651123,224.308105 513.000000,224.000000 
M171.500305,458.651428 
	C142.431290,458.651428 113.362259,458.651428 84.042297,458.651428 
	C84.042297,456.342865 84.042305,454.692444 84.042305,453.041992 
	C84.042297,416.715576 84.042610,380.389130 84.042221,344.062714 
	C84.041885,312.402069 83.992363,280.741272 84.090179,249.080948 
	C84.105515,244.114822 82.888412,239.878586 79.017479,236.674118 
	C74.926956,233.287857 70.253311,232.582214 65.481094,234.807251 
	C59.538918,237.577789 57.345325,242.660156 57.348709,249.048126 
	C57.387646,322.534119 57.359921,396.020111 57.401554,469.506134 
	C57.407467,479.946045 62.664886,485.106262 73.060661,485.111694 
	C115.552559,485.133850 158.044495,485.138702 200.536392,485.112213 
	C212.350845,485.104828 217.047821,480.299500 217.049881,468.386719 
	C217.056961,427.227875 216.939774,386.068634 217.090607,344.910339 
	C217.210602,312.165466 249.462036,292.854187 277.280365,308.933563 
	C291.054352,316.895172 296.903595,329.686035 296.925598,345.271942 
	C296.983887,386.597321 296.939392,427.922852 296.954102,469.248322 
	C296.957886,479.896484 301.870087,485.078094 312.335114,485.092834 
	C355.660095,485.153931 398.985291,485.088043 442.310272,485.152374 
	C448.532837,485.161621 452.952820,482.361511 455.333954,476.919312 
	C456.478394,474.303680 456.573517,471.082581 456.576111,468.135132 
	C456.640167,395.482330 456.631775,322.829468 456.609436,250.176636 
	C456.608826,248.189163 456.511566,246.161392 456.119110,244.221237 
	C454.236694,234.914322 443.667542,230.649261 435.896698,236.018494 
	C431.189819,239.270676 429.903870,243.930634 429.910004,249.452057 
	C429.985382,317.272400 429.958313,385.092834 429.957733,452.913269 
	C429.957733,454.719299 429.957733,456.525299 429.957733,458.257935 
	C394.340149,458.257935 359.132935,458.257935 323.567047,458.257935 
	C323.567047,455.875092 323.572357,453.899445 323.566223,451.923859 
	C323.448242,413.934692 324.324829,375.909637 322.958923,337.965363 
	C321.233490,290.035156 265.440582,260.726410 224.184891,285.274841 
	C201.142578,298.985809 190.375137,319.683044 190.418747,346.315247 
	C190.476593,381.641785 190.432953,416.968445 190.432922,452.295074 
	C190.432922,454.245026 190.432922,456.194977 190.432922,458.651459 
	C184.067520,458.651459 178.283829,458.651459 171.500305,458.651428 
z"/>
<path fill="#FFFFFF" opacity="1.000000" stroke="none" 
	d="
M1.000000,216.000000 
	C1.000000,144.366470 1.000000,72.732948 1.000000,1.049709 
	C171.554596,1.049709 342.109192,1.049709 513.000000,1.049709 
	C513.000000,72.687752 513.000000,144.376022 512.659302,216.412445 
	C510.272461,213.865265 508.805939,210.181030 506.095642,208.189331 
	C426.692017,149.839188 347.166901,91.654305 267.653290,33.453880 
	C259.057770,27.162338 254.975677,27.133234 246.515625,33.324032 
	C168.606094,90.335861 90.682930,147.329163 12.863990,204.464401 
	C8.460111,207.697769 4.934420,212.127228 1.000000,216.000000 
z"/>
<path fill="#030303" opacity="1.000000" stroke="none" 
	d="
M1.000000,216.444168 
	C4.934420,212.127228 8.460111,207.697769 12.863990,204.464401 
	C90.682930,147.329163 168.606094,90.335861 246.515625,33.324032 
	C254.975677,27.133234 259.057770,27.162338 267.653290,33.453880 
	C347.166901,91.654305 426.692017,149.839188 506.095642,208.189331 
	C508.805939,210.181030 510.272461,213.865265 512.659302,216.880310 
	C513.000000,219.041672 513.000000,221.083328 513.000000,223.562500 
	C512.651123,224.308105 512.200806,224.554047 511.968140,224.933395 
	C506.395142,234.020538 499.005829,235.630188 490.247864,229.286545 
	C471.114014,215.427399 452.082031,201.427505 433.018585,187.471207 
	C375.426758,145.308411 317.823944,103.160568 260.300690,60.904423 
	C257.598969,58.919750 255.958298,59.266994 253.468185,61.093544 
	C177.132431,117.086945 100.731438,172.991425 24.385418,228.970856 
	C19.633871,232.454849 14.595205,234.651138 9.182798,231.704773 
	C6.199440,230.080719 4.134634,226.769287 1.327857,224.109283 
	C1.000000,221.629440 1.000000,219.258896 1.000000,216.444168 
z"/>
<path fill="#030303" opacity="1.000000" stroke="none" 
	d="
M172.000214,458.651428 
	C178.283829,458.651459 184.067520,458.651459 190.432922,458.651459 
	C190.432922,456.194977 190.432922,454.245026 190.432922,452.295074 
	C190.432953,416.968445 190.476593,381.641785 190.418747,346.315247 
	C190.375137,319.683044 201.142578,298.985809 224.184891,285.274841 
	C265.440582,260.726410 321.233490,290.035156 322.958923,337.965363 
	C324.324829,375.909637 323.448242,413.934692 323.566223,451.923859 
	C323.572357,453.899445 323.567047,455.875092 323.567047,458.257935 
	C359.132935,458.257935 394.340149,458.257935 429.957733,458.257935 
	C429.957733,456.525299 429.957733,454.719299 429.957733,452.913269 
	C429.958313,385.092834 429.985382,317.272400 429.910004,249.452057 
	C429.903870,243.930634 431.189819,239.270676 435.896698,236.018494 
	C443.667542,230.649261 454.236694,234.914322 456.119110,244.221237 
	C456.511566,246.161392 456.608826,248.189163 456.609436,250.176636 
	C456.631775,322.829468 456.640167,395.482330 456.576111,468.135132 
	C456.573517,471.082581 456.478394,474.303680 455.333954,476.919312 
	C452.952820,482.361511 448.532837,485.161621 442.310272,485.152374 
	C398.985291,485.088043 355.660095,485.153931 312.335114,485.092834 
	C301.870087,485.078094 296.957886,479.896484 296.954102,469.248322 
	C296.939392,427.922852 296.983887,386.597321 296.925598,345.271942 
	C296.903595,329.686035 291.054352,316.895172 277.280365,308.933563 
	C249.462036,292.854187 217.210602,312.165466 217.090607,344.910339 
	C216.939774,386.068634 217.056961,427.227875 217.049881,468.386719 
	C217.047821,480.299500 212.350845,485.104828 200.536392,485.112213 
	C158.044495,485.138702 115.552559,485.133850 73.060661,485.111694 
	C62.664886,485.106262 57.407467,479.946045 57.401554,469.506134 
	C57.359921,396.020111 57.387646,322.534119 57.348709,249.048126 
	C57.345325,242.660156 59.538918,237.577789 65.481094,234.807251 
	C70.253311,232.582214 74.926956,233.287857 79.017479,236.674118 
	C82.888412,239.878586 84.105515,244.114822 84.090179,249.080948 
	C83.992363,280.741272 84.041885,312.402069 84.042221,344.062714 
	C84.042610,380.389130 84.042297,416.715576 84.042305,453.041992 
	C84.042305,454.692444 84.042297,456.342865 84.042297,458.651428 
	C113.362259,458.651428 142.431290,458.651428 172.000214,458.651428 
z"/>
</svg>