<svg version="1.1" id="Layer_1" xmlns="http://www.w3.org/2000/svg" xmlns:xlink="http://www.w3.org/1999/xlink" x="0px" y="0px"
	 width="100%" viewBox="0 0 272 224" enable-background="new 0 0 272 224" xml:space="preserve">
<path fill="#000000" opacity="1.000000" stroke="none" 
	d="
M86.917709,36.878864 
	C112.494484,15.965201 148.525162,27.883505 157.759796,58.491482 
	C165.748459,84.969711 144.557983,112.868706 116.921600,113.370079 
	C96.580162,113.739105 76.384026,100.178947 72.454002,78.033127 
	C69.647018,62.215595 74.193672,48.072712 86.917709,36.878864 
M86.329491,55.905537 
	C85.201675,59.193165 83.758453,62.338707 83.303062,65.882904 
	C80.695786,86.174797 97.621025,102.677437 117.101349,101.949249 
	C133.391418,101.340317 151.554062,85.293167 147.251694,64.124077 
	C144.339951,49.797333 132.910431,39.399784 117.805313,37.519302 
	C108.728340,36.389282 93.233208,41.642963 86.329491,55.905537 
z"/>
<path fill="#000000" opacity="1.000000" stroke="none" 
	d="
M199.750259,92.915222 
	C216.584244,99.249893 225.540375,115.280411 221.999359,132.153381 
	C218.755524,147.610321 204.134171,158.602814 187.406815,158.160400 
	C172.805984,157.774261 158.479141,144.640823 156.724594,130.033997 
	C154.637527,112.658768 164.117233,97.286392 179.299362,92.839615 
	C186.081345,90.853203 192.672134,90.491905 199.750259,92.915222 
M191.973831,146.599228 
	C193.870880,146.021667 195.824844,145.584732 197.655640,144.843536 
	C208.793442,140.334305 213.992615,128.300598 209.854263,116.758667 
	C205.985641,105.969009 194.281754,100.293823 182.998230,103.736214 
	C171.815018,107.147987 166.183746,117.306473 168.387421,130.328308 
	C169.711044,138.149841 179.234818,147.737747 191.973831,146.599228 
z"/>
<path fill="#000000" opacity="1.000000" stroke="none" 
	d="
M153.953400,176.936035 
	C186.414703,148.655029 231.504501,167.816299 240.727081,204.340256 
	C241.049881,205.618652 241.329147,206.971512 241.263702,208.271271 
	C241.126602,210.993790 242.597763,214.543732 237.648254,214.909409 
	C233.598694,215.208588 231.267548,214.450912 230.428513,209.762268 
	C227.327179,192.431808 216.970169,181.322937 200.240768,176.038040 
	C183.153748,170.640198 163.256088,178.288269 153.916824,193.687912 
	C150.657745,199.061890 148.569870,204.750610 148.086945,210.982300 
	C147.662750,216.456039 143.604340,214.763046 140.592606,214.850632 
	C137.031006,214.954254 136.758469,212.453171 137.001175,209.690079 
	C138.152481,196.583023 144.390518,186.096298 153.953400,176.936035 
z"/>
<path fill="#000000" opacity="1.000000" stroke="none" 
	d="
M67.787079,139.735535 
	C83.561638,128.029251 100.903336,122.340157 120.231461,122.821724 
	C123.225548,122.896332 126.223938,122.850182 129.219467,122.804077 
	C135.574356,122.706291 135.416245,122.752373 135.336624,129.068436 
	C135.289200,132.831345 133.455185,133.503082 130.334091,133.401505 
	C119.842384,133.060028 109.395714,133.275696 99.190582,136.223511 
	C75.825172,142.972809 59.496929,157.677872 49.694004,179.825241 
	C46.005386,188.158752 44.441116,196.962296 44.224464,205.969315 
	C44.114246,210.551453 41.427731,210.314026 38.254040,210.422195 
	C34.802738,210.539810 33.613590,209.237885 33.622704,205.768738 
	C33.682793,182.890762 42.704277,163.909225 58.544266,147.877731 
	C61.340820,145.047363 64.504929,142.580170 67.787079,139.735535 
z"/>
</svg>