<svg version="1.1" id="Layer_1" xmlns="http://www.w3.org/2000/svg" xmlns:xlink="http://www.w3.org/1999/xlink" x="0px" y="0px"
	 width="100%" viewBox="0 0 512 512" enable-background="new 0 0 512 512" xml:space="preserve">
<path fill="#FFFFFF" opacity="1.000000" stroke="none" 
	d="
M513.000000,180.000000 
	C513.000000,291.306274 513.000000,402.112549 513.000000,512.959412 
	C342.402039,512.959412 171.804092,512.959412 1.103063,512.959412 
	C1.103063,342.443756 1.103063,171.887421 1.103063,1.165548 
	C171.666534,1.165548 342.333252,1.165548 513.000000,1.165548 
	C513.000000,60.529209 513.000000,120.014603 513.000000,180.000000 
M251.955551,300.623444 
	C253.773758,312.608093 255.591965,324.592743 257.438538,336.764496 
	C249.163467,336.764496 241.245010,336.764496 233.001648,336.764496 
	C233.001648,334.737549 233.001663,332.940002 233.001663,331.142456 
	C233.001541,288.147614 233.136078,245.152161 232.946899,202.158142 
	C232.845825,179.186951 222.600677,161.704742 202.114548,151.259140 
	C194.628372,147.442078 185.884247,146.092148 177.001648,143.400864 
	C177.001648,143.374756 177.001648,142.071060 177.001633,140.767365 
	C177.001556,134.601440 176.926987,128.434341 177.022507,122.269905 
	C177.116364,116.212555 175.478989,110.761002 171.693222,106.023575 
	C166.973663,100.117538 160.577225,97.389786 153.267502,96.805321 
	C153.267502,86.094208 153.267502,75.676514 153.267502,65.001648 
	C158.502884,65.001648 163.506226,64.671623 168.433914,65.139137 
	C170.944565,65.377342 173.797379,66.511703 175.664078,68.174446 
	C180.881851,72.822105 185.537125,78.094536 190.648773,82.869499 
	C200.962692,92.504051 216.149521,92.280113 225.739426,82.537560 
	C235.371933,72.751740 235.471008,57.659489 225.731552,47.440941 
	C219.410217,40.808666 212.882874,34.363758 206.267044,28.023546 
	C198.738541,20.808693 189.625854,17.065344 179.190353,17.039642 
	C146.527832,16.959190 113.864792,16.937939 81.202347,17.031155 
	C67.555588,17.070101 56.987602,27.731140 57.010208,41.043560 
	C57.032799,54.345448 67.602798,64.793259 81.299065,64.986938 
	C86.415894,65.059296 91.534599,64.998650 96.819351,64.998650 
	C96.819351,75.869759 96.819351,86.301964 96.819351,96.708679 
	C80.641411,99.095413 73.009186,107.895805 72.999092,124.007065 
	C72.994736,130.959000 72.998360,137.910950 72.998360,144.561279 
	C68.351791,145.287964 64.191078,145.635254 60.184803,146.614410 
	C34.045448,153.002945 17.032015,174.930634 17.016853,202.389954 
	C16.967718,291.379242 16.997623,380.368622 16.998987,469.357971 
	C16.999269,487.718719 26.273285,497.000549 44.623447,497.000763 
	C176.440994,497.002380 308.258545,497.001648 440.076111,497.000854 
	C441.409241,497.000854 442.743408,497.022522 444.075287,496.978607 
	C455.380188,496.605713 464.937103,488.608215 466.848206,477.488800 
	C468.764587,466.338562 470.297516,455.122620 472.017273,443.938354 
	C477.834229,406.109344 483.652924,368.280640 489.484802,330.453918 
	C491.918945,314.665466 494.446533,298.891144 496.812103,283.092499 
	C497.722382,277.013245 494.320496,273.203033 488.123718,273.010773 
	C485.843964,272.940063 483.560181,272.999420 481.378784,272.999420 
	C480.285858,267.393799 481.321686,262.919525 484.633911,258.659058 
	C488.300201,253.943176 491.543030,248.864563 494.597748,243.722610 
	C495.889130,241.548920 496.893951,238.812210 496.902252,236.327621 
	C497.039703,195.166367 497.052246,154.004364 496.960449,112.842827 
	C496.935181,101.503708 489.497681,92.439110 478.532654,89.724228 
	C467.965912,87.107964 457.145050,91.815834 452.062592,101.776909 
	C450.647278,104.550667 449.071259,105.078293 446.350800,105.047577 
	C435.686768,104.927147 425.020569,104.998314 414.355194,104.998367 
	C402.647095,104.998428 400.998474,106.616203 400.998444,118.106644 
	C400.998291,145.603348 400.998383,173.100067 400.998383,200.596771 
	C400.998383,216.547012 401.457306,217.001587 417.560638,217.001617 
	C427.998657,217.001633 438.436707,217.001633 448.600952,217.001633 
	C449.938354,223.005295 448.338593,227.560669 444.986206,231.907166 
	C441.540283,236.374954 438.399384,241.125748 435.599457,246.023941 
	C434.189941,248.489685 433.283142,251.523254 433.111542,254.358337 
	C432.742950,260.448303 432.998383,266.576050 432.998383,272.794556 
	C419.267090,272.794556 406.009460,272.794556 392.581726,272.794556 
	C392.420563,272.007965 392.223267,271.388947 392.174652,270.758514 
	C389.804657,240.033646 387.509949,209.302658 384.983429,178.590744 
	C384.753784,175.798767 383.558319,172.764725 381.931091,170.466278 
	C375.680786,161.637466 368.997803,153.116104 362.658051,144.348557 
	C361.362061,142.556229 360.435577,140.269714 360.047211,138.085052 
	C357.601044,124.325752 355.382538,110.526176 353.028625,96.750206 
	C352.126801,91.472633 349.490234,89.079330 344.297119,89.029907 
	C334.132599,88.933174 323.965973,88.938965 313.801270,89.025925 
	C308.548462,89.070862 305.891571,91.422577 304.983948,96.643814 
	C303.587769,104.675644 302.549652,112.778725 300.886292,120.752831 
	C298.821991,130.648895 299.486633,141.246048 291.745117,149.649612 
	C285.797546,156.105835 280.948700,163.590958 275.797424,170.752426 
	C274.495117,172.562912 273.273315,174.830307 273.086212,176.980972 
	C271.570343,194.404510 270.316254,211.850769 268.969604,229.289108 
	C267.856323,243.705307 266.725677,258.120178 265.566650,272.998718 
	C263.042084,272.998718 260.756256,272.966675 258.471558,273.004669 
	C251.396408,273.122345 248.176483,276.980377 249.299133,283.982391 
	C250.142105,289.240051 251.006699,294.494263 251.955551,300.623444 
z"/>
<path fill="#010101" opacity="1.000000" stroke="none" 
	d="
M251.908615,300.186707 
	C251.006699,294.494263 250.142105,289.240051 249.299133,283.982391 
	C248.176483,276.980377 251.396408,273.122345 258.471558,273.004669 
	C260.756256,272.966675 263.042084,272.998718 265.566650,272.998718 
	C266.725677,258.120178 267.856323,243.705307 268.969604,229.289108 
	C270.316254,211.850769 271.570343,194.404510 273.086212,176.980972 
	C273.273315,174.830307 274.495117,172.562912 275.797424,170.752426 
	C280.948700,163.590958 285.797546,156.105835 291.745117,149.649612 
	C299.486633,141.246048 298.821991,130.648895 300.886292,120.752831 
	C302.549652,112.778725 303.587769,104.675644 304.983948,96.643814 
	C305.891571,91.422577 308.548462,89.070862 313.801270,89.025925 
	C323.965973,88.938965 334.132599,88.933174 344.297119,89.029907 
	C349.490234,89.079330 352.126801,91.472633 353.028625,96.750206 
	C355.382538,110.526176 357.601044,124.325752 360.047211,138.085052 
	C360.435577,140.269714 361.362061,142.556229 362.658051,144.348557 
	C368.997803,153.116104 375.680786,161.637466 381.931091,170.466278 
	C383.558319,172.764725 384.753784,175.798767 384.983429,178.590744 
	C387.509949,209.302658 389.804657,240.033646 392.174652,270.758514 
	C392.223267,271.388947 392.420563,272.007965 392.581726,272.794556 
	C406.009460,272.794556 419.267090,272.794556 432.998383,272.794556 
	C432.998383,266.576050 432.742950,260.448303 433.111542,254.358337 
	C433.283142,251.523254 434.189941,248.489685 435.599457,246.023941 
	C438.399384,241.125748 441.540283,236.374954 444.986206,231.907166 
	C448.338593,227.560669 449.938354,223.005295 448.600952,217.001633 
	C438.436707,217.001633 427.998657,217.001633 417.560638,217.001617 
	C401.457306,217.001587 400.998383,216.547012 400.998383,200.596771 
	C400.998383,173.100067 400.998291,145.603348 400.998444,118.106644 
	C400.998474,106.616203 402.647095,104.998428 414.355194,104.998367 
	C425.020569,104.998314 435.686768,104.927147 446.350800,105.047577 
	C449.071259,105.078293 450.647278,104.550667 452.062592,101.776909 
	C457.145050,91.815834 467.965912,87.107964 478.532654,89.724228 
	C489.497681,92.439110 496.935181,101.503708 496.960449,112.842827 
	C497.052246,154.004364 497.039703,195.166367 496.902252,236.327621 
	C496.893951,238.812210 495.889130,241.548920 494.597748,243.722610 
	C491.543030,248.864563 488.300201,253.943176 484.633911,258.659058 
	C481.321686,262.919525 480.285858,267.393799 481.378784,272.999420 
	C483.560181,272.999420 485.843964,272.940063 488.123718,273.010773 
	C494.320496,273.203033 497.722382,277.013245 496.812103,283.092499 
	C494.446533,298.891144 491.918945,314.665466 489.484802,330.453918 
	C483.652924,368.280640 477.834229,406.109344 472.017273,443.938354 
	C470.297516,455.122620 468.764587,466.338562 466.848206,477.488800 
	C464.937103,488.608215 455.380188,496.605713 444.075287,496.978607 
	C442.743408,497.022522 441.409241,497.000854 440.076111,497.000854 
	C308.258545,497.001648 176.440994,497.002380 44.623447,497.000763 
	C26.273285,497.000549 16.999269,487.718719 16.998987,469.357971 
	C16.997623,380.368622 16.967718,291.379242 17.016853,202.389954 
	C17.032015,174.930634 34.045448,153.002945 60.184803,146.614410 
	C64.191078,145.635254 68.351791,145.287964 72.998360,144.561279 
	C72.998360,137.910950 72.994736,130.959000 72.999092,124.007065 
	C73.009186,107.895805 80.641411,99.095413 96.819351,96.708679 
	C96.819351,86.301964 96.819351,75.869759 96.819351,64.998650 
	C91.534599,64.998650 86.415894,65.059296 81.299065,64.986938 
	C67.602798,64.793259 57.032799,54.345448 57.010208,41.043560 
	C56.987602,27.731140 67.555588,17.070101 81.202347,17.031155 
	C113.864792,16.937939 146.527832,16.959190 179.190353,17.039642 
	C189.625854,17.065344 198.738541,20.808693 206.267044,28.023546 
	C212.882874,34.363758 219.410217,40.808666 225.731552,47.440941 
	C235.471008,57.659489 235.371933,72.751740 225.739426,82.537560 
	C216.149521,92.280113 200.962692,92.504051 190.648773,82.869499 
	C185.537125,78.094536 180.881851,72.822105 175.664078,68.174446 
	C173.797379,66.511703 170.944565,65.377342 168.433914,65.139137 
	C163.506226,64.671623 158.502884,65.001648 153.267502,65.001648 
	C153.267502,75.676514 153.267502,86.094208 153.267502,96.805321 
	C160.577225,97.389786 166.973663,100.117538 171.693222,106.023575 
	C175.478989,110.761002 177.116364,116.212555 177.022507,122.269905 
	C176.926987,128.434341 177.001556,134.601440 177.001633,140.767365 
	C177.001648,142.071060 177.001648,143.374756 177.001648,143.400864 
	C185.884247,146.092148 194.628372,147.442078 202.114548,151.259140 
	C222.600677,161.704742 232.845825,179.186951 232.946899,202.158142 
	C233.136078,245.152161 233.001541,288.147614 233.001663,331.142456 
	C233.001663,332.940002 233.001648,334.737549 233.001648,336.764496 
	C241.245010,336.764496 249.163467,336.764496 257.438538,336.764496 
	C255.591965,324.592743 253.773758,312.608093 251.908615,300.186707 
M454.636139,452.064850 
	C462.950012,397.838318 471.263855,343.611786 479.590820,289.299774 
	C408.370422,289.299774 337.517487,289.299774 266.383820,289.299774 
	C268.858154,305.370728 271.281006,321.107208 273.727722,336.998779 
	C289.491547,336.998779 304.808136,336.932892 320.123993,337.014099 
	C343.477142,337.137970 360.867065,354.389771 360.973145,377.694855 
	C361.092957,404.013885 361.004059,430.333923 360.996399,456.653503 
	C360.994232,464.146515 359.032440,471.094757 355.142212,477.504303 
	C354.518250,478.532288 354.006866,479.628632 353.282623,480.997284 
	C383.471405,480.997284 413.120056,481.008118 442.768677,480.986542 
	C447.656036,480.983002 450.483002,478.547974 451.205505,473.629333 
	C452.220856,466.717285 453.343994,459.821075 454.636139,452.064850 
M191.936996,225.917160 
	C192.291901,229.212830 192.947128,232.507751 192.955124,235.804260 
	C193.032639,267.803406 193.001709,299.802765 193.001709,331.802063 
	C193.001709,333.418640 193.001694,335.035217 193.001694,336.772919 
	C201.180725,336.772919 208.918808,336.772919 216.998169,336.772919 
	C216.998169,335.588959 216.998184,334.627380 216.998184,333.665802 
	C216.998093,289.833405 217.055664,246.000931 216.974945,202.168701 
	C216.930878,178.242294 199.585236,161.056839 175.556931,161.016220 
	C141.891098,160.959320 108.225029,160.963455 74.559174,161.014709 
	C50.246731,161.051712 33.025829,178.238647 33.016064,202.540588 
	C32.980167,291.871979 32.998672,381.203369 33.007156,470.534760 
	C33.007900,478.355499 35.656551,480.989563 43.509212,480.992767 
	C76.008507,481.005981 108.507797,481.002014 141.007080,480.983398 
	C142.194595,480.982727 143.381973,480.763000 145.102020,480.592560 
	C133.406265,465.936829 138.211960,448.923126 136.715195,433.001404 
	C118.291374,433.001404 100.295097,433.043732 82.299118,432.988434 
	C67.100571,432.941742 57.017185,422.803070 57.009735,407.527649 
	C56.981609,349.862213 56.982285,292.196808 57.009113,234.531387 
	C57.016335,219.007187 67.100868,209.022491 82.729561,209.006500 
	C110.895584,208.977676 139.061768,209.043701 167.227676,208.976761 
	C179.041412,208.948685 187.183624,214.248978 191.936996,225.917160 
M137.058548,374.814453 
	C139.038376,353.047119 152.936615,339.655975 176.997910,336.657196 
	C176.997910,335.417297 176.997910,334.112579 176.997910,332.807892 
	C176.997910,300.332428 177.007065,267.856964 176.991211,235.381516 
	C176.987411,227.608429 174.327881,225.010391 166.419891,225.006836 
	C139.107193,224.994568 111.794502,224.999771 84.481804,225.003372 
	C75.277077,225.004578 73.003929,227.273636 73.003479,236.469238 
	C73.000702,292.760040 73.001877,349.050812 73.003433,405.341614 
	C73.003471,406.673767 72.909569,408.018463 73.054672,409.335815 
	C73.563072,413.951447 76.193825,416.864349 80.805504,416.904541 
	C99.408630,417.066895 118.014008,416.971863 137.028259,416.971863 
	C137.028259,402.976990 137.028259,389.364471 137.058548,374.814453 
M340.955231,363.719879 
	C335.748749,356.365021 328.630402,352.966125 319.632385,352.976532 
	C272.493469,353.031036 225.354446,352.977631 178.215500,353.016296 
	C163.270172,353.028534 153.051270,363.177155 153.018265,378.030701 
	C152.960510,404.015320 152.960129,430.000244 153.018539,455.984863 
	C153.051437,470.620117 163.212784,480.953003 177.739166,480.973053 
	C225.211197,481.038544 272.683441,481.035522 320.155457,480.975006 
	C334.718445,480.956421 344.936615,470.677643 344.977356,456.081482 
	C345.049866,430.096954 345.174835,404.109711 344.832275,378.129517 
	C344.771637,373.527954 342.545593,368.954926 340.955231,363.719879 
M340.500000,272.998871 
	C352.285004,272.998871 364.070007,272.998871 376.346405,272.998871 
	C374.076355,243.449051 371.840820,214.348801 369.612274,185.339859 
	C342.263245,185.339859 315.384918,185.339859 288.371246,185.339859 
	C286.128479,214.632492 283.910706,243.598297 281.659668,272.998871 
	C301.274841,272.998871 320.387421,272.998871 340.500000,272.998871 
M480.999817,122.523193 
	C480.986633,119.190414 481.156311,115.844337 480.915131,112.528145 
	C480.594604,108.121437 477.216217,105.058380 473.053528,105.027321 
	C468.888763,104.996246 465.531525,108.047470 465.065735,112.411392 
	C464.907318,113.895615 465.002075,115.408173 465.001984,116.907784 
	C464.999573,148.071701 464.417969,179.251450 465.264313,210.392380 
	C465.644409,224.377655 463.582916,236.781311 453.913239,247.121078 
	C446.627594,254.911591 449.658234,264.088898 448.975464,272.644104 
	C454.792297,272.644104 459.873627,272.644104 465.683533,272.644104 
	C462.694977,262.667755 467.060822,255.166092 472.597748,247.966400 
	C474.722595,245.203415 476.778229,242.313797 478.346130,239.218811 
	C479.630371,236.683746 480.876190,233.761902 480.889038,231.005692 
	C481.056152,195.176300 480.999817,159.345856 480.999817,122.523193 
M117.500000,32.999874 
	C105.508827,33.001869 93.516991,32.930649 81.526802,33.040298 
	C76.411118,33.087074 73.074066,36.370899 73.029930,40.926250 
	C72.985878,45.471310 76.331482,48.714828 81.389465,48.980949 
	C82.718277,49.050858 84.053596,48.999718 85.385933,48.999741 
	C114.198082,49.000248 143.010941,49.103031 171.821747,48.905857 
	C177.046188,48.870102 181.043198,50.181187 184.595474,54.108143 
	C189.393555,59.412277 194.647293,64.305435 199.727371,69.352936 
	C205.198944,74.789398 210.335754,75.421860 214.429337,71.202477 
	C218.388016,67.122139 217.739166,62.078575 212.542816,56.853065 
	C207.375732,51.656994 202.100937,46.565399 197.022568,41.284500 
	C191.510818,35.552944 184.936798,32.888512 176.956650,32.950520 
	C157.472153,33.101929 137.985672,32.999886 117.500000,32.999874 
M138.497818,113.001434 
	C125.029526,113.001663 111.561012,112.957771 98.093040,113.023369 
	C92.552437,113.050354 89.217308,115.818398 89.081062,120.841476 
	C88.866058,128.768326 89.023857,136.705261 89.023857,144.662872 
	C113.245705,144.662872 137.062225,144.662872 160.997574,144.662872 
	C160.997574,136.854004 161.076035,129.379349 160.972427,121.907211 
	C160.891464,116.068336 157.859940,113.132675 151.966644,113.017792 
	C147.811340,112.936783 143.653183,113.001678 138.497818,113.001434 
M331.498077,152.999817 
	C325.014130,152.999817 318.529602,152.953598 312.046814,153.040436 
	C310.812347,153.056961 309.068634,153.184357 308.438995,153.967422 
	C304.679138,158.643616 301.176941,163.526978 297.351929,168.657913 
	C318.803711,168.657913 339.441620,168.657913 360.553925,168.657913 
	C359.901062,167.682770 359.497223,167.197784 359.220490,166.648743 
	C353.640076,155.575623 345.145721,150.225266 331.498077,152.999817 
M114.716125,65.006432 
	C114.146111,65.604271 113.085510,66.197029 113.079262,66.800705 
	C112.976311,76.746750 113.006081,86.694153 113.006081,96.778381 
	C121.171082,96.778381 128.907196,96.778381 136.775864,96.778381 
	C136.775864,86.156158 136.775864,75.754036 136.775864,65.002785 
	C129.600876,65.002785 122.641701,65.002785 114.716125,65.006432 
M314.885162,134.743149 
	C315.380005,135.492569 315.865234,136.887909 316.371063,136.895432 
	C325.306091,137.027969 334.243683,136.991409 343.536957,136.991409 
	C341.714691,126.061028 339.973846,115.618973 338.238342,105.208992 
	C331.888977,105.208992 325.957031,105.208992 319.747437,105.208992 
	C318.142944,114.849281 316.564392,124.333435 314.885162,134.743149 
M445.346375,153.002502 
	C435.930450,153.002502 426.514557,153.002502 417.346375,153.002502 
	C417.346375,158.761230 417.346375,163.836533 417.346375,168.652679 
	C428.097809,168.652679 438.503296,168.652679 448.997253,168.652679 
	C448.997253,164.149155 449.166687,159.978180 448.874939,155.839737 
	C448.804382,154.838943 447.210297,153.945557 445.346375,153.002502 
M427.523163,136.997528 
	C434.617828,136.997528 441.712524,136.997528 448.701630,136.997528 
	C448.701630,131.337128 448.701630,126.266960 448.701630,121.297195 
	C438.001404,121.297195 427.599487,121.297195 417.300171,121.297195 
	C417.300171,126.666428 417.300171,131.736618 417.300171,136.997528 
	C420.575531,136.997528 423.554718,136.997528 427.523163,136.997528 
M417.002777,187.674194 
	C417.002777,192.090378 417.002777,196.506546 417.002777,200.645813 
	C428.110687,200.645813 438.517090,200.645813 448.640869,200.645813 
	C448.640869,195.212845 448.640869,190.135300 448.640869,185.002594 
	C438.957458,185.002594 429.629761,184.945801 420.304688,185.077896 
	C419.197815,185.093567 418.105560,186.141434 417.002777,187.674194 
z"/>
<path fill="#FFFFFF" opacity="1.000000" stroke="none" 
	d="
M454.528595,452.491455 
	C453.343994,459.821075 452.220856,466.717285 451.205505,473.629333 
	C450.483002,478.547974 447.656036,480.983002 442.768677,480.986542 
	C413.120056,481.008118 383.471405,480.997284 353.282623,480.997284 
	C354.006866,479.628632 354.518250,478.532288 355.142212,477.504303 
	C359.032440,471.094757 360.994232,464.146515 360.996399,456.653503 
	C361.004059,430.333923 361.092957,404.013885 360.973145,377.694855 
	C360.867065,354.389771 343.477142,337.137970 320.123993,337.014099 
	C304.808136,336.932892 289.491547,336.998779 273.727722,336.998779 
	C271.281006,321.107208 268.858154,305.370728 266.383820,289.299774 
	C337.517487,289.299774 408.370422,289.299774 479.590820,289.299774 
	C471.263855,343.611786 462.950012,397.838318 454.528595,452.491455 
z"/>
<path fill="#FFFFFF" opacity="1.000000" stroke="none" 
	d="
M191.822495,225.530273 
	C187.183624,214.248978 179.041412,208.948685 167.227676,208.976761 
	C139.061768,209.043701 110.895584,208.977676 82.729561,209.006500 
	C67.100868,209.022491 57.016335,219.007187 57.009113,234.531387 
	C56.982285,292.196808 56.981609,349.862213 57.009735,407.527649 
	C57.017185,422.803070 67.100571,432.941742 82.299118,432.988434 
	C100.295097,433.043732 118.291374,433.001404 136.715195,433.001404 
	C138.211960,448.923126 133.406265,465.936829 145.102020,480.592560 
	C143.381973,480.763000 142.194595,480.982727 141.007080,480.983398 
	C108.507797,481.002014 76.008507,481.005981 43.509212,480.992767 
	C35.656551,480.989563 33.007900,478.355499 33.007156,470.534760 
	C32.998672,381.203369 32.980167,291.871979 33.016064,202.540588 
	C33.025829,178.238647 50.246731,161.051712 74.559174,161.014709 
	C108.225029,160.963455 141.891098,160.959320 175.556931,161.016220 
	C199.585236,161.056839 216.930878,178.242294 216.974945,202.168701 
	C217.055664,246.000931 216.998093,289.833405 216.998184,333.665802 
	C216.998184,334.627380 216.998169,335.588959 216.998169,336.772919 
	C208.918808,336.772919 201.180725,336.772919 193.001694,336.772919 
	C193.001694,335.035217 193.001709,333.418640 193.001709,331.802063 
	C193.001709,299.802765 193.032639,267.803406 192.955124,235.804260 
	C192.947128,232.507751 192.291901,229.212830 191.822495,225.530273 
z"/>
<path fill="#FFFFFF" opacity="1.000000" stroke="none" 
	d="
M137.043396,375.283203 
	C137.028259,389.364471 137.028259,402.976990 137.028259,416.971863 
	C118.014008,416.971863 99.408630,417.066895 80.805504,416.904541 
	C76.193825,416.864349 73.563072,413.951447 73.054672,409.335815 
	C72.909569,408.018463 73.003471,406.673767 73.003433,405.341614 
	C73.001877,349.050812 73.000702,292.760040 73.003479,236.469238 
	C73.003929,227.273636 75.277077,225.004578 84.481804,225.003372 
	C111.794502,224.999771 139.107193,224.994568 166.419891,225.006836 
	C174.327881,225.010391 176.987411,227.608429 176.991211,235.381516 
	C177.007065,267.856964 176.997910,300.332428 176.997910,332.807892 
	C176.997910,334.112579 176.997910,335.417297 176.997910,336.657196 
	C152.936615,339.655975 139.038376,353.047119 137.043396,375.283203 
z"/>
<path fill="#FFFFFF" opacity="1.000000" stroke="none" 
	d="
M341.137360,364.044312 
	C342.545593,368.954926 344.771637,373.527954 344.832275,378.129517 
	C345.174835,404.109711 345.049866,430.096954 344.977356,456.081482 
	C344.936615,470.677643 334.718445,480.956421 320.155457,480.975006 
	C272.683441,481.035522 225.211197,481.038544 177.739166,480.973053 
	C163.212784,480.953003 153.051437,470.620117 153.018539,455.984863 
	C152.960129,430.000244 152.960510,404.015320 153.018265,378.030701 
	C153.051270,363.177155 163.270172,353.028534 178.215500,353.016296 
	C225.354446,352.977631 272.493469,353.031036 319.632385,352.976532 
	C328.630402,352.966125 335.748749,356.365021 341.137360,364.044312 
M321.000061,438.484253 
	C321.000061,421.332397 321.019562,404.180511 320.990784,387.028717 
	C320.978729,379.839661 318.196014,377.013733 311.072388,377.010162 
	C269.608185,376.989349 228.143967,376.986755 186.679794,377.013245 
	C179.875061,377.017609 177.023636,379.912720 177.012085,386.774170 
	C176.978165,406.923370 176.978165,427.072723 177.012070,447.221924 
	C177.023621,454.080383 179.879227,456.950836 186.678711,456.987640 
	C195.837204,457.037231 204.996170,457.000061 214.154922,457.000061 
	C246.293839,457.000092 278.432770,457.008148 310.571686,456.994263 
	C318.346161,456.990906 320.963531,454.317230 320.998474,446.469757 
	C321.008850,444.138458 321.000061,441.807129 321.000061,438.484253 
z"/>
<path fill="#FEFEFE" opacity="1.000000" stroke="none" 
	d="
M340.000000,272.998871 
	C320.387421,272.998871 301.274841,272.998871 281.659668,272.998871 
	C283.910706,243.598297 286.128479,214.632492 288.371246,185.339859 
	C315.384918,185.339859 342.263245,185.339859 369.612274,185.339859 
	C371.840820,214.348801 374.076355,243.449051 376.346405,272.998871 
	C364.070007,272.998871 352.285004,272.998871 340.000000,272.998871 
z"/>
<path fill="#FEFEFE" opacity="1.000000" stroke="none" 
	d="
M480.999817,123.019440 
	C480.999817,159.345856 481.056152,195.176300 480.889038,231.005692 
	C480.876190,233.761902 479.630371,236.683746 478.346130,239.218811 
	C476.778229,242.313797 474.722595,245.203415 472.597748,247.966400 
	C467.060822,255.166092 462.694977,262.667755 465.683533,272.644104 
	C459.873627,272.644104 454.792297,272.644104 448.975464,272.644104 
	C449.658234,264.088898 446.627594,254.911591 453.913239,247.121078 
	C463.582916,236.781311 465.644409,224.377655 465.264313,210.392380 
	C464.417969,179.251450 464.999573,148.071701 465.001984,116.907784 
	C465.002075,115.408173 464.907318,113.895615 465.065735,112.411392 
	C465.531525,108.047470 468.888763,104.996246 473.053528,105.027321 
	C477.216217,105.058380 480.594604,108.121437 480.915131,112.528145 
	C481.156311,115.844337 480.986633,119.190414 480.999817,123.019440 
z"/>
<path fill="#FEFEFE" opacity="1.000000" stroke="none" 
	d="
M118.000000,32.999874 
	C137.985672,32.999886 157.472153,33.101929 176.956650,32.950520 
	C184.936798,32.888512 191.510818,35.552944 197.022568,41.284500 
	C202.100937,46.565399 207.375732,51.656994 212.542816,56.853065 
	C217.739166,62.078575 218.388016,67.122139 214.429337,71.202477 
	C210.335754,75.421860 205.198944,74.789398 199.727371,69.352936 
	C194.647293,64.305435 189.393555,59.412277 184.595474,54.108143 
	C181.043198,50.181187 177.046188,48.870102 171.821747,48.905857 
	C143.010941,49.103031 114.198082,49.000248 85.385933,48.999741 
	C84.053596,48.999718 82.718277,49.050858 81.389465,48.980949 
	C76.331482,48.714828 72.985878,45.471310 73.029930,40.926250 
	C73.074066,36.370899 76.411118,33.087074 81.526802,33.040298 
	C93.516991,32.930649 105.508827,33.001869 118.000000,32.999874 
z"/>
<path fill="#FEFEFE" opacity="1.000000" stroke="none" 
	d="
M138.997070,113.001434 
	C143.653183,113.001678 147.811340,112.936783 151.966644,113.017792 
	C157.859940,113.132675 160.891464,116.068336 160.972427,121.907211 
	C161.076035,129.379349 160.997574,136.854004 160.997574,144.662872 
	C137.062225,144.662872 113.245705,144.662872 89.023857,144.662872 
	C89.023857,136.705261 88.866058,128.768326 89.081062,120.841476 
	C89.217308,115.818398 92.552437,113.050354 98.093040,113.023369 
	C111.561012,112.957771 125.029526,113.001663 138.997070,113.001434 
z"/>
<path fill="#FEFEFE" opacity="1.000000" stroke="none" 
	d="
M331.997437,152.999817 
	C345.145721,150.225266 353.640076,155.575623 359.220490,166.648743 
	C359.497223,167.197784 359.901062,167.682770 360.553925,168.657913 
	C339.441620,168.657913 318.803711,168.657913 297.351929,168.657913 
	C301.176941,163.526978 304.679138,158.643616 308.438995,153.967422 
	C309.068634,153.184357 310.812347,153.056961 312.046814,153.040436 
	C318.529602,152.953598 325.014130,152.999817 331.997437,152.999817 
z"/>
<path fill="#FFFFFF" opacity="1.000000" stroke="none" 
	d="
M115.199326,65.004608 
	C122.641701,65.002785 129.600876,65.002785 136.775864,65.002785 
	C136.775864,75.754036 136.775864,86.156158 136.775864,96.778381 
	C128.907196,96.778381 121.171082,96.778381 113.006081,96.778381 
	C113.006081,86.694153 112.976311,76.746750 113.079262,66.800705 
	C113.085510,66.197029 114.146111,65.604271 115.199326,65.004608 
z"/>
<path fill="#FDFDFD" opacity="1.000000" stroke="none" 
	d="
M314.935516,134.280365 
	C316.564392,124.333435 318.142944,114.849281 319.747437,105.208992 
	C325.957031,105.208992 331.888977,105.208992 338.238342,105.208992 
	C339.973846,115.618973 341.714691,126.061028 343.536957,136.991409 
	C334.243683,136.991409 325.306091,137.027969 316.371063,136.895432 
	C315.865234,136.887909 315.380005,135.492569 314.935516,134.280365 
z"/>
<path fill="#FFFFFF" opacity="1.000000" stroke="none" 
	d="
M445.831604,153.002640 
	C447.210297,153.945557 448.804382,154.838943 448.874939,155.839737 
	C449.166687,159.978180 448.997253,164.149155 448.997253,168.652679 
	C438.503296,168.652679 428.097809,168.652679 417.346375,168.652679 
	C417.346375,163.836533 417.346375,158.761230 417.346375,153.002502 
	C426.514557,153.002502 435.930450,153.002502 445.831604,153.002640 
z"/>
<path fill="#FFFFFF" opacity="1.000000" stroke="none" 
	d="
M427.028503,136.997528 
	C423.554718,136.997528 420.575531,136.997528 417.300171,136.997528 
	C417.300171,131.736618 417.300171,126.666428 417.300171,121.297195 
	C427.599487,121.297195 438.001404,121.297195 448.701630,121.297195 
	C448.701630,126.266960 448.701630,131.337128 448.701630,136.997528 
	C441.712524,136.997528 434.617828,136.997528 427.028503,136.997528 
z"/>
<path fill="#FFFFFF" opacity="1.000000" stroke="none" 
	d="
M417.004639,187.192520 
	C418.105560,186.141434 419.197815,185.093567 420.304688,185.077896 
	C429.629761,184.945801 438.957458,185.002594 448.640869,185.002594 
	C448.640869,190.135300 448.640869,195.212845 448.640869,200.645813 
	C438.517090,200.645813 428.110687,200.645813 417.002777,200.645813 
	C417.002777,196.506546 417.002777,192.090378 417.004639,187.192520 
z"/>
<path fill="#000000" opacity="1.000000" stroke="none" 
	d="
M321.000061,438.980042 
	C321.000061,441.807129 321.008850,444.138458 320.998474,446.469757 
	C320.963531,454.317230 318.346161,456.990906 310.571686,456.994263 
	C278.432770,457.008148 246.293839,457.000092 214.154922,457.000061 
	C204.996170,457.000061 195.837204,457.037231 186.678711,456.987640 
	C179.879227,456.950836 177.023621,454.080383 177.012070,447.221924 
	C176.978165,427.072723 176.978165,406.923370 177.012085,386.774170 
	C177.023636,379.912720 179.875061,377.017609 186.679794,377.013245 
	C228.143967,376.986755 269.608185,376.989349 311.072388,377.010162 
	C318.196014,377.013733 320.978729,379.839661 320.990784,387.028717 
	C321.019562,404.180511 321.000061,421.332397 321.000061,438.980042 
M267.500000,393.000763 
	C242.740295,393.000763 217.980591,393.000763 193.287384,393.000763 
	C193.287384,409.308685 193.287384,425.045868 193.287384,440.714661 
	C230.641937,440.714661 267.709198,440.714661 304.712646,440.714661 
	C304.712646,424.691315 304.712646,408.954193 304.712646,393.000763 
	C292.451569,393.000763 280.475800,393.000763 267.500000,393.000763 
z"/>
<path fill="#FFFFFF" opacity="1.000000" stroke="none" 
	d="
M268.000000,393.000763 
	C280.475800,393.000763 292.451569,393.000763 304.712646,393.000763 
	C304.712646,408.954193 304.712646,424.691315 304.712646,440.714661 
	C267.709198,440.714661 230.641937,440.714661 193.287384,440.714661 
	C193.287384,425.045868 193.287384,409.308685 193.287384,393.000763 
	C217.980591,393.000763 242.740295,393.000763 268.000000,393.000763 
z"/>
</svg>