<svg version="1.1" id="Layer_1" xmlns="http://www.w3.org/2000/svg" xmlns:xlink="http://www.w3.org/1999/xlink" x="0px" y="0px"
	 width="100%" viewBox="0 0 1024 1024" enable-background="new 0 0 1024 1024" xml:space="preserve">
<path fill="none" opacity="1.000000" stroke="#000000" stroke-linecap="round" stroke-linejoin="round" stroke-width="17.000000"
	d="
M826.000000,736.000000 
	C826.000000,561.166687 826.000000,386.333344 826.000000,211.500000 
	C826.000000,210.833328 826.013977,210.166336 825.997864,209.500046 
	C825.833740,202.720779 824.279236,201.166336 817.499939,201.002182 
	C816.833679,200.986038 816.166687,201.000000 815.500000,201.000000 
	C613.500000,201.000000 411.500000,201.000000 209.500000,201.000000 
	C208.833328,201.000000 208.166336,200.986069 207.500046,201.002151 
	C201.425766,201.148712 199.897141,202.573929 199.509186,208.500595 
	C199.444000,209.496338 199.500000,210.500000 199.500000,211.500000 
	C199.500000,383.333344 199.502533,555.166687 199.479187,727.000000 
	C199.478790,730.000000 199.166672,733.000000 199.000000,736.000000 
"/>
<path fill="none" opacity="1.000000" stroke="#000000" stroke-linecap="round" stroke-linejoin="round" stroke-width="16.000000"
	d="
M198.500000,736.500000 
	C195.326660,737.966614 192.036682,738.631531 188.498932,738.542847 
	C182.336121,738.388489 176.164780,738.404785 170.000549,738.527832 
	C164.295197,738.641663 162.136383,740.210327 162.067017,745.000977 
	C161.874008,758.331482 161.914215,771.667603 162.061172,784.999329 
	C162.097275,788.275208 163.212402,790.951904 167.492294,791.159241 
	C169.117233,791.237915 170.843643,791.466309 172.500000,791.466553 
	C399.166656,791.501770 625.833313,791.500000 852.500000,791.500000 
	C861.515198,791.500000 862.500000,790.515198 862.500000,781.500000 
	C862.500000,770.000000 862.531677,758.499878 862.488220,747.000061 
	C862.461609,739.961182 861.038818,738.565369 853.999939,738.508179 
	C848.833557,738.466248 843.666626,738.512878 838.500000,738.496948 
	C830.833313,738.473206 823.184387,738.129822 815.497192,738.202881 
	C758.002380,738.749207 700.500000,738.500000 643.000000,738.500000 
	C498.500000,738.500000 354.000000,738.492981 209.500015,738.540771 
	C205.968094,738.541992 202.673340,737.966614 199.500000,736.500000 
"/>
<path fill="none" opacity="1.000000" stroke="#000000" stroke-linecap="round" stroke-linejoin="round" stroke-width="16.000000"
	d="
M285.000000,293.000000 
	C285.000000,407.000000 284.999390,521.000000 285.001160,635.000000 
	C285.001312,644.232300 285.240204,645.473450 295.500000,645.476013 
	C438.166656,645.511414 580.833313,645.498535 723.500000,645.510437 
	C726.333313,645.510681 729.166687,645.666687 732.000000,645.750000 
"/>
<path fill="none" opacity="1.000000" stroke="#000000" stroke-linecap="round" stroke-linejoin="round" stroke-width="16.000000"
	d="
M722.000000,300.000000 
	C718.578857,304.382721 714.964600,308.579132 711.020203,312.520203 
	C644.492004,378.991943 578.000305,445.500244 511.498901,511.998901 
	C508.955536,514.542175 506.605499,517.343079 502.571533,518.238220 
	C500.234344,517.216919 498.108521,515.138245 495.988861,513.011108 
	C483.344727,500.321991 470.672119,487.661163 457.997742,475.002258 
	C451.297943,468.310638 450.227783,468.286987 443.505554,475.005554 
	C402.494354,515.994385 361.510803,557.010864 320.461243,597.961182 
	C318.786713,599.631592 317.699463,602.465881 314.500000,602.000000 
"/>
<path fill="none" opacity="1.000000" stroke="#000000" stroke-linecap="round" stroke-linejoin="round" stroke-width="16.000000"
	d="
M731.500000,476.000000 
	C728.300537,475.534119 727.213745,478.368744 725.538879,480.038971 
	C689.154480,516.321167 652.845581,552.678894 616.461121,588.961060 
	C614.786255,590.631226 613.699463,593.465881 610.500000,593.000000 
"/>
<path fill="none" opacity="1.000000" stroke="#000000" stroke-linecap="round" stroke-linejoin="round" stroke-width="16.000000"
	d="
M710.000000,546.500000 
	C721.247375,546.860229 731.174438,556.356873 732.400574,567.510925 
	C733.847046,580.668884 725.819092,591.071472 714.506714,594.522034 
	C699.889648,598.980713 686.007751,587.327332 683.922424,576.514954 
	C681.397644,563.424683 687.611755,550.626648 701.987671,546.951782 
	C704.519775,546.304565 707.002258,546.700806 709.500000,546.500000 
"/>
<path fill="none" opacity="1.000000" stroke="#000000" stroke-linecap="round" stroke-linejoin="round" stroke-width="17.000000"
	d="
M730.500000,348.000000 
	C731.321838,336.342682 730.865662,324.667175 731.017517,313.000214 
	C731.085022,307.818054 729.608398,301.813446 725.783997,299.941254 
	C720.688660,297.446991 715.951294,293.212616 709.497681,293.430847 
	C699.339783,293.774353 689.166687,293.666656 679.000000,293.749969 
"/>
<path fill="none" opacity="1.000000" stroke="#000000" stroke-linecap="round" stroke-linejoin="round" stroke-width="15.000000"
	d="
M635.000000,472.500000 
	C626.551636,474.185699 619.546753,477.900909 615.483948,485.991943 
	C611.133301,494.656250 611.589966,503.103241 617.061951,510.956848 
	C622.670166,519.006042 630.277893,522.887756 640.512207,521.596924 
	C651.520081,520.208618 658.313049,514.385681 661.492371,503.997650 
	C664.397217,494.506104 661.770325,486.275330 654.927246,479.574280 
	C649.669312,474.425507 643.047607,471.914917 635.500000,472.500000 
"/>
</svg>