<svg version="1.1" id="Layer_1" xmlns="http://www.w3.org/2000/svg" xmlns:xlink="http://www.w3.org/1999/xlink" x="0px" y="0px"
	 width="100%" viewBox="0 0 1530 1532" enable-background="new 0 0 1530 1532" xml:space="preserve">
<path fill="none" opacity="1.000000" stroke="#000000" stroke-linecap="round" stroke-linejoin="round" stroke-width="21.000000"
	d="
M803.000000,1127.500000 
	C880.666687,1127.500000 958.333435,1127.440552 1035.999878,1127.560791 
	C1048.382080,1127.579956 1055.265625,1120.895142 1057.932617,1112.977295 
	C1058.554688,1111.130737 1058.473389,1109.000366 1058.478027,1107.000000 
	C1058.516602,1090.166626 1058.453003,1073.333130 1058.532349,1056.500122 
	C1058.552612,1052.190063 1055.959961,1048.226074 1055.959961,1044.500000 
	C1055.959961,1040.773926 1058.549194,1036.809814 1058.532227,1032.499878 
	C1058.457520,1013.500183 1058.393799,994.498962 1058.575439,975.500732 
	C1058.620239,970.804932 1055.779663,966.764038 1055.785400,962.500366 
	C1055.791138,958.235840 1058.569702,954.189331 1058.567871,949.500000 
	C1058.489014,745.666687 1058.500854,541.833313 1058.497681,338.000000 
	C1058.497559,325.325470 1050.157349,317.000000 1037.500000,317.000000 
	C900.000000,317.000000 762.500000,317.019684 625.000061,316.919098 
	C620.135071,316.915558 615.849426,320.024323 611.529968,319.652161 
	C607.280945,319.286102 603.169312,316.900208 598.499512,316.939117 
	C580.500732,317.089172 562.499939,317.034515 544.500000,316.992554 
	C510.741608,316.913849 481.723541,343.151886 477.874847,374.984863 
	C477.388611,379.006531 477.009277,382.978241 477.009064,387.000000 
	C476.998749,585.000000 477.018097,783.000000 476.926941,980.999939 
	C476.923645,988.147583 478.573883,994.432800 483.000000,1000.000000 
"/>
<path fill="none" opacity="1.000000" stroke="#000000" stroke-linecap="round" stroke-linejoin="round" stroke-width="21.000000"
	d="
M612.000000,320.500000 
	C612.000000,520.166687 611.987610,719.833313 612.028320,919.500000 
	C612.031006,932.499390 611.491455,945.510803 612.500000,958.500000 
"/>
<path fill="none" opacity="1.000000" stroke="#000000" stroke-linecap="round" stroke-linejoin="round" stroke-width="22.000000"
	d="
M675.500000,1127.500000 
	C638.500000,1127.500000 601.496216,1127.179199 564.501343,1127.614990 
	C540.651917,1127.895874 519.791687,1120.579102 502.628204,1104.364258 
	C488.045166,1090.587280 479.406281,1073.219482 477.552246,1052.995239 
	C475.984192,1035.889893 478.158600,1019.087463 482.364624,1002.465759 
	C482.982788,1000.022705 484.493896,999.854187 485.992554,998.987122 
	C489.515594,996.949219 492.805237,994.780457 495.578461,991.567749 
	C507.506073,977.749817 522.355896,968.299194 540.018127,963.567566 
	C545.687805,962.048645 551.606384,961.639099 557.500000,961.501038 
	C557.833130,961.493225 558.166687,961.500000 558.500000,961.500000 
	C569.500000,961.500000 580.512207,961.176025 591.496582,961.590210 
	C602.678711,962.011902 613.833313,957.974976 625.000000,961.500000 
	C764.833313,961.500000 904.666687,961.492737 1044.500000,961.541809 
	C1048.000122,961.543091 1051.500000,962.166748 1055.000000,962.500061 
"/>
<path fill="none" opacity="1.000000" stroke="#000000" stroke-linecap="round" stroke-linejoin="round" stroke-width="22.000000"
	d="
M1055.000000,1044.500000 
	C974.166687,1044.500000 893.333252,1044.539062 812.500183,1044.402222 
	C807.703308,1044.394043 803.350708,1047.234619 799.038818,1046.691772 
	C794.570740,1046.129272 790.223450,1044.436401 785.499878,1044.450684 
	C754.000122,1044.545654 722.499023,1044.622559 691.001099,1044.364746 
	C686.401611,1044.327026 682.370300,1047.340820 678.032715,1046.355957 
	C673.700134,1045.372192 669.491150,1044.433960 664.999817,1044.452515 
	C640.666931,1044.552856 616.333313,1044.500000 592.000000,1044.500000 
"/>
<path fill="none" opacity="1.000000" stroke="#000000" stroke-linecap="round" stroke-linejoin="round" stroke-width="21.000000"
	d="
M679.000000,1047.500000 
	C679.000000,1069.000000 678.977844,1090.500000 679.016968,1112.000000 
	C679.025757,1116.837769 678.321899,1121.374023 676.753906,1126.084473 
	C675.263123,1130.562988 679.258240,1134.989258 679.136902,1140.003296 
	C678.761963,1155.494263 679.197571,1171.003662 678.911316,1186.498413 
	C678.780823,1193.561035 680.438782,1199.811523 684.378784,1205.308350 
	C682.554993,1210.289795 680.777527,1215.144897 679.000000,1220.000000 
"/>
<path fill="none" opacity="1.000000" stroke="#000000" stroke-linecap="round" stroke-linejoin="round" stroke-width="21.000000"
	d="
M799.500000,1048.000000 
	C800.589478,1069.159424 799.776184,1090.333740 799.959534,1111.500366 
	C800.004395,1116.674683 801.043640,1121.538574 802.181580,1126.572021 
	C803.251770,1131.305908 799.729797,1136.175659 799.861755,1141.503418 
	C800.249634,1157.160400 799.807434,1172.836792 800.089478,1188.498413 
	C800.211975,1195.302124 798.595154,1201.354492 795.000000,1207.000000 
"/>
<path fill="none" opacity="1.000000" stroke="#000000" stroke-linecap="round" stroke-linejoin="round" stroke-width="21.000000"
	d="
M685.000000,1205.500000 
	C693.909241,1203.490112 699.359924,1196.919678 705.027344,1190.524170 
	C713.086792,1181.429199 721.322937,1172.490601 729.507324,1163.506714 
	C731.581543,1161.229858 734.325562,1159.905029 736.886597,1158.557129 
	C740.700623,1160.108765 743.697144,1162.628662 746.521240,1165.479004 
	C757.635986,1176.697021 768.841858,1187.824951 779.994324,1199.005737 
	C782.873291,1201.892090 785.852539,1204.573486 789.998718,1205.505615 
	C793.792114,1206.358398 796.198425,1208.458740 797.080933,1212.482300 
	C797.650085,1215.076782 799.000000,1217.500000 800.000000,1220.000000 
"/>
<path fill="none" opacity="1.000000" stroke="#000000" stroke-linecap="round" stroke-linejoin="round" stroke-width="22.000000"
	d="
M734.000000,510.500000 
	C726.442322,512.395142 725.518738,513.481689 725.513855,521.500000 
	C725.485474,567.833313 725.485168,614.166687 725.513977,660.500000 
	C725.519043,668.599854 727.801025,670.967163 736.000000,670.973145 
	C802.000000,671.021118 868.000000,671.020325 934.000000,670.973633 
	C942.045959,670.967957 944.481506,668.448669 944.486328,660.500000 
	C944.514343,614.166687 944.595276,567.832947 944.414734,521.500305 
	C944.381104,512.869019 943.473145,510.541931 932.500000,510.531433 
	C866.500061,510.468109 800.500000,510.500000 734.500000,510.500000 
"/>
</svg>