<svg version="1.1" id="Layer_1" xmlns="http://www.w3.org/2000/svg" xmlns:xlink="http://www.w3.org/1999/xlink" x="0px" y="0px"
	 width="100%" viewBox="0 0 976 976" enable-background="new 0 0 976 976" xml:space="preserve">
<path fill="#000000" opacity="1.000000" stroke="none" 
	d="
M495.000000,708.306519 
	C471.011993,708.343445 447.523956,708.420532 424.036163,708.370850 
	C420.727753,708.363892 417.990540,709.222229 415.188751,711.022705 
	C390.455353,726.916138 358.586151,716.976868 347.300568,689.794067 
	C345.833588,686.260681 343.909332,685.104248 340.224426,685.190857 
	C331.063751,685.406006 321.891113,685.391846 312.728882,685.201294 
	C295.238831,684.837524 285.637756,675.915344 283.715118,658.559204 
	C279.447968,620.037720 275.112732,581.523682 270.903198,542.995911 
	C267.055115,507.776489 263.450226,472.530090 259.477295,437.325043 
	C258.513580,428.785339 259.100555,429.353668 251.473236,429.307739 
	C245.621185,429.272522 241.436371,425.355713 241.805069,419.527649 
	C242.475891,408.923492 243.200180,398.285828 245.410782,387.844482 
	C246.153503,384.336334 247.695206,381.024323 250.542038,378.900085 
	C254.111801,376.236481 254.925568,372.617737 255.848419,368.648407 
	C267.564850,318.253784 296.582001,282.497833 346.970520,268.129456 
	C392.006653,255.287308 432.355316,267.059509 466.204437,299.411682 
	C485.903412,318.239502 497.951569,341.548798 503.317505,368.258148 
	C504.073700,372.022095 505.352478,375.013275 509.024506,376.935730 
	C512.705261,378.862793 515.033813,382.300720 516.093323,386.266022 
	C516.892883,389.258301 518.695251,390.487701 521.414856,391.487946 
	C539.214478,398.034393 549.975342,410.446869 552.393982,429.532288 
	C552.993286,434.262054 554.669922,438.252380 557.653931,442.118286 
	C611.504822,511.883148 665.223267,581.750244 718.972351,651.593689 
	C724.357239,658.590881 729.724731,665.601807 735.159546,672.560059 
	C740.805481,679.788574 742.221008,687.627441 738.045959,695.911011 
	C733.956482,704.024841 726.902771,707.347961 717.961548,707.334045 
	C695.463318,707.298950 672.960999,707.125000 650.467346,707.466736 
	C598.813049,708.251526 547.156250,708.137085 495.000000,708.306519 
M446.499939,371.680176 
	C460.054352,371.680176 473.608765,371.680176 487.288361,371.680176 
	C480.989655,328.266541 438.850372,277.283051 375.997467,279.288086 
	C317.776093,281.145355 278.134399,329.602386 272.240295,371.080231 
	C273.919250,372.132782 275.801849,371.652863 277.584869,371.656891 
	C295.251282,371.696899 312.917816,371.674561 330.584320,371.680908 
	C341.108124,371.684662 343.322266,373.937531 343.331146,384.684265 
	C343.344391,400.684113 343.490906,416.686462 343.234283,432.682190 
	C343.163696,437.081940 344.364380,439.694855 348.432983,441.704193 
	C354.994385,444.944611 361.181610,448.933685 367.618835,452.437653 
	C372.348541,455.012177 374.500336,458.708893 374.452240,464.175018 
	C374.292358,482.340118 374.400848,500.507446 374.372223,518.673889 
	C374.352997,530.889954 368.190399,537.082764 355.890228,537.145874 
	C342.557404,537.214355 329.223694,537.213928 315.890808,537.150940 
	C303.879456,537.094177 297.126373,530.584045 297.027161,518.706726 
	C296.879639,501.041351 297.003357,483.373840 296.919220,465.707703 
	C296.888519,459.259644 299.350494,454.646637 305.292694,451.628662 
	C311.970795,448.236908 318.328064,444.219452 324.916901,440.643677 
	C328.646790,438.619446 327.507782,435.275024 327.577087,432.252167 
	C327.627075,430.074310 326.096191,429.457672 324.230133,429.455292 
	C308.730591,429.435455 293.231049,429.430237 277.731506,429.417755 
	C275.392639,429.415863 274.536194,430.392487 274.838226,432.855164 
	C275.526428,438.465973 275.860413,444.119324 276.490936,449.738251 
	C279.717438,478.491882 283.028900,507.236023 286.239197,535.991516 
	C288.950897,560.280762 291.683899,584.569153 294.107086,608.887817 
	C294.519348,613.025208 296.234436,613.753052 299.789429,613.726868 
	C315.455078,613.611755 331.124939,613.514465 346.786804,613.785156 
	C351.232635,613.861938 352.831848,612.155945 353.817261,608.099609 
	C359.884094,583.126526 368.054382,558.853027 378.646057,535.414551 
	C395.435211,498.261566 417.165253,464.276093 443.875977,433.469391 
	C444.750671,432.460571 446.382080,431.637238 445.541656,429.404907 
	C443.795105,429.404907 441.980316,429.404785 440.165527,429.404938 
	C418.665741,429.406860 397.165924,429.412445 375.666138,429.407532 
	C371.499817,429.406586 367.326141,429.510834 363.169189,429.301666 
	C358.806427,429.082123 355.948700,426.127197 355.744171,422.045807 
	C355.536835,417.908051 358.538605,414.342896 362.848999,413.822571 
	C364.658661,413.604156 366.510284,413.708710 368.342834,413.708344 
	C398.009216,413.702484 427.675781,413.653656 457.341736,413.767334 
	C460.944122,413.781189 463.682678,412.889343 466.164642,410.197327 
	C474.742584,400.893494 484.358276,393.060699 496.945496,389.737213 
	C497.075897,389.702789 497.088287,389.221497 497.228455,388.655304 
	C492.624146,387.878235 488.052094,387.343262 483.380341,387.348541 
	C445.047424,387.391632 406.714447,387.376007 368.381470,387.367676 
	C366.383179,387.367249 364.347687,387.497681 362.393585,387.176849 
	C356.481781,386.206268 354.028809,379.739807 357.569855,374.906616 
	C359.719666,371.972351 362.702393,371.634094 366.000702,371.640320 
	C392.500366,371.690125 419.000153,371.674988 446.499939,371.680176 
M527.561829,457.049652 
	C539.641174,444.866302 540.229126,426.161835 528.903931,414.356689 
	C517.252808,402.211792 498.292755,401.588654 485.712494,413.333771 
	C472.316406,425.840607 459.490204,438.930450 447.923370,453.186462 
	C403.650604,507.752350 375.560272,569.676819 363.554779,638.903870 
	C361.564880,650.377991 359.569641,661.955078 359.651794,673.547546 
	C359.760803,688.943054 372.834167,701.971191 387.306732,702.687744 
	C404.195862,703.523804 417.260132,693.195129 419.816864,676.738525 
	C420.786163,670.499512 421.081299,664.157654 421.983612,657.906006 
	C426.478485,626.762390 434.928345,596.750671 447.964508,568.069458 
	C459.940674,541.720459 474.515259,516.949524 492.730469,494.396423 
	C496.797333,489.361053 501.333801,488.314484 505.129486,491.344574 
	C509.136597,494.543549 509.076294,498.835938 505.055664,503.998718 
	C496.761719,514.648743 488.862885,525.588135 481.954834,537.191040 
	C479.715851,540.951782 476.790436,544.474365 475.968872,548.921326 
	C492.655762,558.305847 518.155945,551.336792 530.050110,534.622803 
	C543.809326,515.288025 539.173828,490.704834 527.490295,480.029907 
	C525.925964,480.408264 525.131714,481.771790 524.043274,482.766174 
	C519.461060,486.952362 515.173523,487.215088 511.726196,483.534973 
	C508.551300,480.145660 509.051697,475.284180 513.140808,471.182281 
	C517.726685,466.581970 522.406433,462.075226 527.561829,457.049652 
M573.665344,488.799835 
	C565.319092,477.954803 556.972839,467.109772 548.414246,455.988770 
	C546.005737,459.364655 544.579651,462.118225 542.461121,464.149658 
	C539.550232,466.940765 539.826294,468.858643 542.199707,472.030060 
	C561.918640,498.377930 557.162659,535.427612 531.395508,555.656860 
	C513.609619,569.620239 493.746094,572.433655 472.528931,564.958679 
	C468.612030,563.578674 466.944214,564.414673 465.300751,567.995728 
	C458.275513,583.303528 452.060364,598.906677 447.353577,615.087097 
	C446.775604,617.073975 445.554291,619.072266 446.704926,621.568542 
	C451.759399,621.804810 456.828278,620.975647 461.993866,621.495544 
	C493.524048,624.668884 517.130737,655.120361 511.982056,686.405457 
	C510.963898,692.592163 510.964447,692.656494 517.026184,692.605225 
	C545.680908,692.363098 574.335388,692.086670 602.989685,691.803955 
	C604.290955,691.791138 605.676453,692.048523 606.800903,691.109802 
	C607.673950,689.861267 607.143677,688.501404 607.187988,687.202148 
	C607.768677,670.177063 614.927246,656.898315 630.302734,649.109680 
	C644.658508,641.837463 659.139465,642.814453 672.559998,651.663879 
	C684.780334,659.721924 690.922546,671.491882 691.353333,686.202087 
	C691.414612,688.295959 690.272156,691.493347 693.983032,691.564880 
	C702.476807,691.728760 710.987854,691.830017 719.469360,691.450928 
	C723.824097,691.256287 725.576233,687.218384 723.420898,683.457886 
	C722.597961,682.022095 721.509460,680.732849 720.493530,679.414124 
	C701.581909,654.867554 682.655640,630.332336 663.747253,605.783264 
	C633.859741,566.979919 603.983215,528.168091 573.665344,488.799835 
M333.538116,454.054260 
	C328.019684,457.147186 322.525848,460.285187 316.971863,463.312866 
	C314.411621,464.708618 313.085297,466.484528 313.113098,469.627014 
	C313.249969,485.116241 313.246582,500.607788 313.131714,516.097351 
	C313.104523,519.766296 314.496643,521.107788 318.134705,521.069092 
	C329.959320,520.942993 341.787384,520.937561 353.611542,521.088867 
	C357.530151,521.139038 358.834412,519.606995 358.798248,515.759338 
	C358.654236,500.436798 358.692108,485.111786 358.788818,469.788483 
	C358.806458,466.991089 358.020935,465.080627 355.468018,463.711182 
	C349.893921,460.721252 344.425934,457.533600 338.912476,454.430511 
	C337.432373,453.597443 335.928619,452.885986 333.538116,454.054260 
M456.499786,692.708191 
	C467.494751,692.696472 478.490631,692.602844 489.484100,692.725586 
	C492.581848,692.760132 494.572784,691.937439 495.338837,688.724182 
	C498.990021,673.408691 495.648041,659.766968 484.492310,648.738770 
	C473.456604,637.829346 459.863617,634.820679 444.788940,638.408752 
	C442.194305,639.026306 440.951874,640.622620 440.398682,643.183167 
	C436.930328,659.237305 437.450195,675.910156 432.190155,692.708130 
	C440.361816,692.708130 447.930756,692.708130 456.499786,692.708191 
M299.853149,659.520691 
	C301.978943,667.323181 304.550110,669.243958 313.585266,669.543091 
	C322.565399,669.840515 331.539337,668.420349 340.528229,669.426819 
	C343.314331,669.738770 343.764496,667.755676 344.056305,665.637756 
	C345.552063,654.781311 347.055756,643.925903 348.583862,633.073975 
	C349.003510,630.093872 347.490173,629.320435 344.827728,629.329163 
	C330.009460,629.377625 315.190765,629.379944 300.372589,629.316284 
	C297.359009,629.303284 296.256958,630.251526 296.699097,633.486145 
	C297.845764,641.874878 298.653320,650.309875 299.853149,659.520691 
M313.451569,387.380432 
	C300.313110,387.381287 287.174377,387.338043 274.036438,387.420044 
	C271.396973,387.436523 268.749969,387.853302 266.125244,388.220123 
	C262.534363,388.721954 260.551208,390.757477 260.182709,394.474915 
	C259.740967,398.930878 259.218323,403.387421 258.487915,407.803589 
	C257.806641,411.922729 258.708832,413.865295 263.502167,413.798828 
	C280.628784,413.561401 297.760651,413.706238 314.890533,413.701874 
	C327.664062,413.698608 327.664062,413.695496 327.660461,400.819916 
	C327.656677,387.384857 327.656677,387.384857 313.451569,387.380432 
M657.497925,691.698242 
	C661.497803,691.693298 665.497803,691.711182 669.497437,691.677612 
	C674.573059,691.634949 675.857239,690.217957 675.578979,685.059143 
	C674.825806,671.097290 662.214355,659.812805 647.950378,660.337341 
	C634.177063,660.843933 623.131714,672.794434 623.186890,686.725769 
	C623.202881,690.761230 624.703674,691.879028 628.501526,691.795288 
	C637.830200,691.589661 647.165955,691.709290 657.497925,691.698242 
z"/>
<path fill="#000000" opacity="1.000000" stroke="none" 
	d="
M382.557495,656.387390 
	C388.865570,622.394836 397.839050,589.574646 410.350037,557.749512 
	C411.940155,553.704529 414.339050,550.667419 419.056396,550.912903 
	C422.550598,551.094666 424.803070,553.263306 425.912750,556.586182 
	C426.650055,558.794128 426.052368,560.848022 425.255341,562.893799 
	C413.208160,593.814819 404.289764,625.620544 398.215057,658.238342 
	C397.088135,664.289124 393.862427,666.946533 388.831390,666.356689 
	C384.451965,665.843201 382.264679,662.536743 382.557495,656.387390 
z"/>
<path fill="#000000" opacity="1.000000" stroke="none" 
	d="
M517.453247,629.363403 
	C504.626984,596.172546 527.275757,561.690918 562.327332,561.012939 
	C576.706055,560.734802 589.411499,565.948364 599.936890,575.916870 
	C604.174316,579.930115 604.250183,584.308899 599.955933,588.573853 
	C596.067505,592.435730 591.747803,595.863281 587.567810,599.526550 
	C591.647461,605.425598 596.081360,608.703735 599.947388,612.503662 
	C609.774658,622.162903 609.955505,628.995361 600.476135,638.976013 
	C597.263245,642.358826 594.039612,645.737854 590.688416,648.981750 
	C583.342712,656.092346 575.564270,656.112915 568.198669,649.142029 
	C564.447205,645.591553 560.652222,642.082947 557.007812,638.424866 
	C554.904968,636.314148 553.277222,636.278625 551.229370,638.552124 
	C548.444824,641.643555 545.415955,644.519104 542.432434,647.426331 
	C537.268250,652.458374 533.246094,652.369202 528.372803,647.011658 
	C523.737732,641.916016 520.090149,636.172119 517.453247,629.363403 
M578.156555,580.173645 
	C560.318848,573.205017 542.665344,578.548889 534.083801,593.222412 
	C526.861938,605.571045 528.835938,623.168945 536.934631,630.515564 
	C552.165222,614.879333 567.408630,599.229919 582.487732,583.749268 
	C581.636719,581.564514 580.042908,581.245972 578.156555,580.173645 
M584.142395,619.380798 
	C581.731018,617.148438 579.319702,614.916016 576.941528,612.714417 
	C562.631042,626.118713 563.962708,622.928284 575.184631,633.795837 
	C576.019104,634.604004 576.920227,635.351929 577.845154,636.055786 
	C578.902161,636.860168 580.099670,636.912109 581.027527,635.958618 
	C584.217834,632.679810 587.885681,629.811646 590.906555,625.234863 
	C588.669067,623.325989 586.647888,621.601624 584.142395,619.380798 
z"/>
<path fill="#000000" opacity="1.000000" stroke="none" 
	d="
M649.080811,607.767700 
	C652.615906,609.400452 654.356750,611.967590 654.121582,615.428528 
	C653.873718,619.075989 651.595825,621.448486 648.269897,622.830383 
	C643.515320,624.805969 638.813538,626.924133 633.990112,628.714539 
	C628.836792,630.627258 624.768616,629.097961 623.041199,624.950134 
	C621.221069,620.579773 623.105286,616.473083 628.192749,614.148743 
	C632.572083,612.147827 637.031677,610.321655 641.466980,608.444702 
	C643.795349,607.459412 646.171387,606.750793 649.080811,607.767700 
z"/>
<path fill="#000000" opacity="1.000000" stroke="none" 
	d="
M563.172119,664.682251 
	C570.424683,665.480530 576.825989,667.900330 583.231140,670.153320 
	C587.119690,671.521118 588.907532,675.989380 587.588684,679.610657 
	C586.040955,683.860229 582.605713,685.663452 578.493835,684.773376 
	C572.662476,683.510986 566.930359,681.671448 561.285889,679.705322 
	C557.506775,678.388916 555.231812,675.500488 555.761047,671.236938 
	C556.257629,667.236572 558.760559,665.105225 563.172119,664.682251 
z"/>
<path fill="#000000" opacity="1.000000" stroke="none" 
	d="
M572.683594,511.742889 
	C575.992981,512.334290 578.004517,514.087524 578.794983,516.813110 
	C580.462219,522.561829 582.093750,528.339294 583.311218,534.194153 
	C584.306519,538.980164 581.772461,542.771118 577.552856,543.816040 
	C573.852539,544.732300 569.587891,542.307007 568.257996,538.052429 
	C566.571228,532.656067 564.979492,527.196594 563.882996,521.658142 
	C562.657593,515.468384 565.796570,512.025757 572.683594,511.742889 
z"/>
<path fill="#000000" opacity="1.000000" stroke="none" 
	d="
M467.278015,653.008118 
	C466.976166,656.967590 465.048492,659.252075 461.648041,660.079895 
	C458.617249,660.817688 456.040924,659.631531 454.240631,657.213440 
	C452.543457,654.933899 452.382233,652.317749 453.662567,649.716492 
	C455.069611,646.857788 457.579193,645.621643 460.561279,645.884521 
	C464.501282,646.231995 466.770844,648.627441 467.278015,653.008118 
z"/>
<path fill="#000000" opacity="1.000000" stroke="none" 
	d="
M475.218018,684.006348 
	C471.807251,681.019714 470.706665,677.851807 473.091125,674.085388 
	C474.909119,671.213867 477.605713,670.225830 480.833374,670.966553 
	C484.732513,671.861328 487.142029,676.124878 486.016083,679.847351 
	C484.730255,684.098450 480.677399,685.788269 475.218018,684.006348 
z"/>
<path fill="#000000" opacity="1.000000" stroke="none" 
	d="
M457.086945,683.020325 
	C453.563232,687.790466 449.357117,688.812256 445.992676,686.036682 
	C442.842712,683.437988 442.281067,678.879761 444.833221,675.806946 
	C446.994781,673.204407 449.845123,672.548218 452.933685,673.697754 
	C457.149292,675.266846 457.884125,678.675720 457.086945,683.020325 
z"/>
</svg>